<?xml version="1.0" encoding="UTF-8" standalone="no"?>


<svg width="662.44873" height="442.86292" viewBox="0 0 662.44873 442.86292" version="1.1" id="svg1" xml:space="preserve" xmlns="http://www.w3.org/2000/svg" xmlns:svg="http://www.w3.org/2000/svg"><defs id="defs1"></defs><g id="layer1" transform="translate(97.021027,32.506615)"><g id="g1" transform="matrix(1.1040848,0,0,1.1040848,-97.022896,-32.506182)"><path style="opacity:0.5;fill:#173d7a" d="m 239.298,250.536 17.878,-10.322 c 1.758,-1.015 4.608,-1.015 6.365,0 l 49.348,28.491 c 1.758,1.015 1.758,2.661 0,3.675 l -17.878,10.322 c -1.758,1.015 -4.608,1.015 -6.366,0 l -49.348,-28.491 c -1.756,-1.015 -1.756,-2.66 0.001,-3.675 z" id="path1"></path><path style="opacity:0.5;fill:#173d7a" d="m 271.225,231.709 17.878,-10.322 c 1.758,-1.015 4.608,-1.015 6.365,0 l 49.348,28.491 c 1.758,1.015 1.758,2.66 0,3.675 l -17.878,10.322 c -1.758,1.015 -4.608,1.015 -6.366,0 l -49.348,-28.491 c -1.757,-1.015 -1.757,-2.66 0.001,-3.675 z" id="path2"></path><path style="opacity:0.5;fill:#173d7a" d="m 162.83,370.247 57.767,-32.939 c 2.113,-1.22 1.848,-3.35 -0.592,-4.759 l -33.238,-19.19 c -2.439,-1.408 -6.13,-1.561 -8.242,-0.342 l -57.767,32.939 c -2.113,1.22 -1.848,3.35 0.592,4.759 l 33.238,19.19 c 2.439,1.408 6.129,1.561 8.242,0.342 z" id="path3"></path><path id="path4" style="fill:#173d7a" d="M 558.33773,-3.9094129e-4 C 559.0126,0.14061116 559.68106,0.2999497 560.33039,0.51556617 c 0.067,-0.1835236 0.15581,-0.34506804 0.23426,-0.51595711129 z m 41.16092,0 C 599.58708,0.90484004 599.66961,1.8094803 599.71808,2.4163047 c 0.10133,0.2370319 0.18792,0.4784726 0.2817,0.7175955 V -3.9094129e-4 Z"></path><path id="path5" style="fill:#ff2c9c" d="M 0.0016964,1.271588e-4 V 0.77689112 C 0.25377596,0.51747928 0.49544605,0.25079368 0.75771593,1.271588e-4 Z"></path><g id="g16">
&#x9;
&#x9;<g id="g15">
&#x9;&#x9;
&#x9;&#x9;
&#x9;&#x9;
&#x9;&#x9;
&#x9;&#x9;
&#x9;&#x9;
&#x9;&#x9;
&#x9;&#x9;
&#x9;</g>
</g><g style="opacity:0.6" id="g82">
&#x9;
&#x9;
&#x9;
&#x9;
&#x9;
&#x9;
&#x9;
&#x9;
&#x9;
&#x9;
&#x9;
&#x9;
&#x9;
&#x9;
&#x9;
&#x9;
&#x9;
&#x9;
&#x9;
&#x9;
&#x9;
&#x9;
&#x9;
&#x9;
&#x9;
&#x9;
&#x9;
&#x9;
&#x9;
&#x9;
&#x9;
&#x9;
&#x9;
&#x9;
&#x9;
&#x9;
&#x9;
&#x9;
&#x9;
&#x9;
&#x9;
&#x9;
&#x9;
&#x9;
&#x9;
&#x9;
&#x9;
&#x9;
&#x9;
&#x9;
&#x9;
&#x9;
&#x9;
&#x9;
&#x9;
&#x9;
&#x9;
&#x9;
&#x9;
&#x9;
&#x9;
&#x9;
&#x9;
&#x9;
&#x9;
&#x9;
&#x9;
</g><g id="g110">
&#x9;
&#x9;
&#x9;
&#x9;
&#x9;
&#x9;
&#x9;
&#x9;
&#x9;
&#x9;
&#x9;
&#x9;
&#x9;
&#x9;
&#x9;
&#x9;
&#x9;
&#x9;
&#x9;
&#x9;
&#x9;
&#x9;
&#x9;
&#x9;
&#x9;
&#x9;
&#x9;
&#x9;
</g><g id="g128">
&#x9;<g id="g119">
&#x9;&#x9;<g id="g112">
&#x9;&#x9;&#x9;<path style="fill:#d4ecff" d="m 270.634,220.398 c -3.109,1.795 -3.109,4.716 0,6.512 l 52.856,30.516 c 0.855,0.493 2.241,0.493 3.096,0 0.855,-0.494 0.855,-1.294 0,-1.788 L 273.73,225.122 c -1.402,-0.81 -1.403,-2.127 0,-2.937 l 5.122,-2.957 c -0.569,-0.856 -1.086,-1.747 -1.591,-2.656 z" id="path111"></path>
&#x9;&#x9;&#x9;<path style="fill:#5793ce" d="m 345.494,244.722 -52.856,-30.516 c -3.109,-1.795 -8.169,-1.795 -11.279,0 l -4.099,2.366 c 0.505,0.909 1.022,1.8 1.591,2.656 l 5.604,-3.235 c 1.402,-0.81 3.684,-0.81 5.086,0 l 52.856,30.516 c 0.855,0.493 2.241,0.493 3.096,0 0.856,-0.493 0.856,-1.294 0.001,-1.787 z" id="path112"></path>
&#x9;&#x9;</g>
&#x9;&#x9;<polygon style="fill:#5793ce" points="346.13,245.679 346.135,171.355 290.745,140.478 282.999,139.967 275.509,144.819 270.912,148.82 324.879,234.399 342.499,244.784 " id="polygon112"></polygon>
&#x9;&#x9;<polygon style="fill:#79b1e0" points="325.645,255.065 342.201,245.507 342.201,173.677 325.134,181.61 " id="polygon113"></polygon>
&#x9;&#x9;<polygon style="fill:#d4ecff" points="268.303,223.597 326.451,256.857 327.227,256.546 327.227,182.235 268.303,149.395 " id="polygon114"></polygon>
&#x9;&#x9;<g id="g114">
&#x9;&#x9;&#x9;<path style="fill:#ffffff" d="m 301.007,150.009 -11.556,-6.64 c -1.411,-0.653 -3.475,-0.612 -4.783,0.143 l -10.726,6.192 c -0.831,0.48 -1.165,1.137 -1.012,1.762 l 29.201,17.449 23.456,14.397 16.612,-9.637 z" id="path114"></path>
&#x9;&#x9;</g>
&#x9;&#x9;<path style="fill:#5793ce" d="m 325.134,181.069 v 73.731 1.563 1.428 c 0.528,-0.013 1.049,-0.132 1.452,-0.365 0.42,-0.243 0.631,-0.559 0.638,-0.878 l 0.002,-0.002 v -0.012 -0.005 -74.294 z" id="path115"></path>
&#x9;&#x9;<polygon style="fill:#ffffff" points="346.135,172.282 346.135,171.355 345.84,171.355 345.75,171.985 " id="polygon115"></polygon>
&#x9;&#x9;<polygon style="fill:#ffffff" points="327.225,182.249 326.94,182.651 327.225,183.198 " id="polygon116"></polygon>
&#x9;&#x9;<g id="g116">
&#x9;&#x9;&#x9;<path style="fill:#d4ecff" d="m 323.49,183.115 -52.856,-30.516 c -3.109,-1.795 -3.109,-4.716 0,-6.512 l 10.726,-6.192 c 3.109,-1.795 8.169,-1.795 11.279,0 l 52.856,30.516 c 0.855,0.493 0.855,1.294 0,1.787 -0.855,0.493 -2.241,0.493 -3.096,0 l -52.856,-30.516 c -1.402,-0.81 -3.684,-0.81 -5.086,0 l -10.726,6.192 c -1.402,0.81 -1.402,2.127 0,2.937 l 52.856,30.516 c 0.855,0.494 0.855,1.294 0,1.788 -0.856,0.493 -2.242,0.493 -3.097,0 z" id="path116"></path>
&#x9;&#x9;</g>
&#x9;&#x9;<polygon style="fill:#ffffff" points="309.715,218.294 282.249,202.437 282.249,174.902 309.715,190.76 " id="polygon117"></polygon>
&#x9;&#x9;<g id="g118">
&#x9;&#x9;&#x9;<path style="fill:#ffffff" d="m 345.494,172.198 c -0.855,0.494 -2.241,0.494 -3.096,0 l -52.856,-30.516 c -1.402,-0.81 -3.684,-0.81 -5.086,0 l -10.726,6.192 c -0.918,0.53 -1.231,1.277 -0.947,1.958 0.15,-0.359 0.463,-0.699 0.947,-0.979 l 10.726,-6.192 c 1.402,-0.81 3.684,-0.81 5.086,0 l 52.856,30.516 c 0.855,0.493 2.241,0.493 3.096,0 0.648,-0.374 0.802,-0.924 0.468,-1.383 -0.107,0.147 -0.261,0.285 -0.468,0.404 z" id="path117"></path>
&#x9;&#x9;&#x9;<path style="fill:#ffffff" d="m 326.586,183.115 c -0.855,0.493 -2.241,0.493 -3.096,0 l -52.856,-30.516 c -1.339,-0.773 -2.098,-1.755 -2.284,-2.766 -0.245,1.336 0.514,2.723 2.284,3.745 l 52.856,30.516 c 0.855,0.493 2.241,0.493 3.096,0 0.648,-0.374 0.802,-0.924 0.468,-1.383 -0.106,0.146 -0.261,0.284 -0.468,0.404 z" id="path118"></path>
&#x9;&#x9;</g>
&#x9;</g>
&#x9;<g id="g127">
&#x9;&#x9;<g id="g120">
&#x9;&#x9;&#x9;<path style="fill:#ff2c9c" d="m 239.945,239.434 c -3.109,1.795 -3.109,4.717 0,6.512 l 52.856,30.516 c 0.855,0.493 2.241,0.493 3.096,0 0.855,-0.493 0.855,-1.294 0,-1.788 l -52.856,-30.516 c -1.402,-0.81 -1.402,-2.127 0,-2.937 l 5.122,-2.957 c -0.569,-0.856 -1.086,-1.747 -1.591,-2.657 z" id="path119"></path>
&#x9;&#x9;&#x9;<path style="fill:#d3008d" d="m 314.804,263.758 -52.856,-30.516 c -3.109,-1.795 -8.169,-1.795 -11.279,0 l -4.099,2.366 c 0.505,0.909 1.022,1.8 1.591,2.657 l 5.604,-3.235 c 1.402,-0.81 3.684,-0.81 5.086,0 l 52.856,30.516 c 0.855,0.493 2.241,0.493 3.096,0 0.856,-0.494 0.856,-1.295 10e-4,-1.788 z" id="path120"></path>
&#x9;&#x9;</g>
&#x9;&#x9;<polygon style="fill:#d3008d" points="315.44,264.715 315.445,190.391 260.056,159.514 252.31,159.003 244.819,163.855 240.222,167.855 294.189,253.435 311.809,263.82 " id="polygon120"></polygon>
&#x9;&#x9;<polygon style="fill:#e573b5" points="294.955,274.102 311.511,264.543 311.511,192.713 294.445,200.646 " id="polygon121"></polygon>
&#x9;&#x9;<polygon style="fill:#ff2c9c" points="237.614,242.633 295.761,275.893 296.537,275.582 296.537,201.271 237.614,168.431 " id="polygon122"></polygon>
&#x9;&#x9;<g id="g122">
&#x9;&#x9;&#x9;<path style="fill:#ffffff" d="m 270.318,169.045 -11.556,-6.64 c -1.411,-0.653 -3.475,-0.612 -4.783,0.143 l -10.726,6.192 c -0.831,0.48 -1.165,1.137 -1.012,1.762 l 29.201,17.45 23.456,14.397 16.612,-9.637 z" id="path122"></path>
&#x9;&#x9;</g>
&#x9;&#x9;<path style="fill:#d3008d" d="m 294.445,200.105 v 73.731 1.563 1.428 c 0.528,-0.013 1.049,-0.132 1.452,-0.365 0.42,-0.243 0.631,-0.559 0.638,-0.878 l 0.002,-0.002 v -0.012 -0.006 -74.294 z" id="path123"></path>
&#x9;&#x9;<polygon style="fill:#ffffff" points="315.445,191.318 315.445,190.391 315.15,190.391 315.06,191.021 " id="polygon123"></polygon>
&#x9;&#x9;<polygon style="fill:#ffffff" points="296.536,201.285 296.25,201.688 296.536,202.234 " id="polygon124"></polygon>
&#x9;&#x9;<g id="g124">
&#x9;&#x9;&#x9;<path style="fill:#ff2c9c" d="m 292.8,202.151 -52.856,-30.516 c -3.109,-1.795 -3.11,-4.717 0,-6.512 l 10.726,-6.192 c 3.109,-1.795 8.169,-1.795 11.279,0 l 52.856,30.516 c 0.855,0.493 0.855,1.294 0,1.788 -0.855,0.493 -2.241,0.493 -3.096,0 l -52.856,-30.516 c -1.402,-0.81 -3.684,-0.81 -5.086,0 l -10.726,6.192 c -1.402,0.81 -1.402,2.127 0,2.937 l 52.856,30.516 c 0.855,0.493 0.855,1.294 0,1.787 -0.855,0.493 -2.242,0.493 -3.097,0 z" id="path124"></path>
&#x9;&#x9;</g>
&#x9;&#x9;<polygon style="fill:#ffffff" points="279.026,237.33 251.559,221.473 251.559,193.939 279.026,209.796 " id="polygon125"></polygon>
&#x9;&#x9;<g id="g126">
&#x9;&#x9;&#x9;<path style="fill:#ffffff" d="m 314.804,191.234 c -0.855,0.493 -2.241,0.493 -3.096,0 l -52.856,-30.516 c -1.402,-0.81 -3.684,-0.81 -5.086,0 l -10.726,6.192 c -0.918,0.53 -1.231,1.277 -0.947,1.958 0.15,-0.359 0.463,-0.699 0.947,-0.979 l 10.726,-6.192 c 1.402,-0.81 3.684,-0.81 5.086,0 l 52.856,30.516 c 0.855,0.494 2.241,0.494 3.096,0 0.648,-0.374 0.802,-0.924 0.468,-1.383 -0.106,0.147 -0.261,0.285 -0.468,0.404 z" id="path125"></path>
&#x9;&#x9;&#x9;<path style="fill:#ffffff" d="m 295.897,202.151 c -0.855,0.493 -2.241,0.493 -3.096,0 l -52.856,-30.516 c -1.339,-0.773 -2.098,-1.755 -2.284,-2.766 -0.245,1.336 0.513,2.723 2.284,3.745 L 292.8,203.13 c 0.855,0.493 2.241,0.493 3.096,0 0.648,-0.374 0.802,-0.924 0.468,-1.383 -0.106,0.146 -0.261,0.284 -0.467,0.404 z" id="path126"></path>
&#x9;&#x9;</g>
&#x9;</g>
</g><g id="g227">
&#x9;<path style="opacity:0.5;fill:#173d7a" d="M 398.749,399.849 284.125,333.671 c -3.243,-1.872 -2.836,-5.142 0.908,-7.304 l 78.05,-45.047 c 3.744,-2.162 9.408,-2.396 12.651,-0.524 l 114.624,66.178 c 3.243,1.872 2.836,5.142 -0.908,7.304 l -78.05,45.047 c -3.745,2.161 -9.409,2.396 -12.651,0.524 z" id="path128"></path>
&#x9;<path style="fill:#173d7a" d="M 522.98,219.996 403.262,150.877 c -1.391,-0.803 -2.803,-0.926 -4.057,-0.497 l 0.007,-0.013 -0.217,0.082 c -0.018,0.007 -0.035,0.013 -0.053,0.02 l -4.327,1.656 3.883,1.901 c -0.017,0.072 -0.04,0.138 -0.056,0.211 L 378.943,243 c -0.976,4.442 0.978,9.628 4.365,11.584 l 116.839,67.457 -0.417,4.951 4.729,-1.833 c 1.588,-0.743 2.86,-2.423 3.386,-4.816 l 19.5,-88.764 c 0.976,-4.442 -0.978,-9.628 -4.365,-11.583 z" id="path129"></path>
&#x9;<path style="fill:#396caa" d="M 522.98,219.996 403.262,150.877 c -1.391,-0.803 -2.803,-0.926 -4.057,-0.497 l 0.007,-0.013 -0.217,0.082 c -0.018,0.007 -0.035,0.013 -0.053,0.02 l -4.327,1.656 3.883,1.901 c -0.017,0.072 -0.04,0.138 -0.056,0.211 l -12.852,58.501 58.576,45.637 82.594,-33.608 c -0.792,-2.058 -2.111,-3.808 -3.78,-4.771 z" id="path130"></path>
&#x9;<path style="fill:#274f89" d="m 518.466,233.64 9.114,-3.88 c 0.167,-3.529 -1.294,-7.176 -3.692,-9.126 l -14.426,6.068 z" id="path131"></path>
&#x9;<path style="fill:#d4ecff" d="M 495.571,326.522 375.853,257.403 c -3.387,-1.955 -5.341,-7.142 -4.365,-11.584 l 19.5,-88.763 c 0.976,-4.442 4.512,-6.458 7.899,-4.503 l 119.718,69.119 c 3.387,1.955 5.341,7.141 4.365,11.584 l -19.5,88.763 c -0.975,4.442 -4.512,6.458 -7.899,4.503 z" id="path132"></path>
&#x9;<path style="fill:#ffffff" d="M 519.755,221.251 400.037,152.133 c -1.641,-0.947 -3.311,-0.946 -4.714,-0.205 1.126,-0.246 2.353,-0.074 3.564,0.626 l 119.718,69.118 c 3.387,1.956 5.341,7.142 4.365,11.584 l -19.5,88.763 c -0.503,2.29 -1.692,3.919 -3.185,4.708 2.021,-0.442 3.708,-2.275 4.335,-5.128 l 19.5,-88.763 c 0.976,-4.443 -0.979,-9.63 -4.365,-11.585 z" id="path133"></path>
&#x9;<path style="fill:#ffffff" d="M 492.976,319.919 380.383,254.946 c -3.099,-1.789 -4.887,-6.535 -3.994,-10.6 l 17.844,-81.226 c 0.893,-4.065 4.129,-5.91 7.228,-4.12 l 112.592,64.973 c 3.099,1.789 4.887,6.535 3.994,10.6 l -17.844,81.226 c -0.892,4.064 -4.128,5.909 -7.227,4.12 z" id="path134"></path>
&#x9;<path style="fill:#173d7a" d="M 492.976,319.919 380.383,254.946 c -3.099,-1.789 -4.887,-6.535 -3.994,-10.6 l 17.844,-81.226 c 0.893,-4.065 4.129,-5.91 7.228,-4.12 l 112.592,64.973 c 3.099,1.789 4.887,6.535 3.994,10.6 l -17.844,81.226 c -0.892,4.064 -4.128,5.909 -7.227,4.12 z" id="path135"></path>
&#x9;<path style="fill:#5793ce" d="M 493.957,319.52 381.364,254.547 c -3.099,-1.789 -4.887,-6.535 -3.994,-10.599 l 17.844,-81.227 c 0.452,-2.057 1.506,-3.539 2.837,-4.275 -1.785,0.459 -3.26,2.133 -3.818,4.675 l -17.844,81.226 c -0.893,4.065 0.895,8.811 3.994,10.6 l 112.593,64.974 c 1.531,0.884 3.092,0.874 4.391,0.155 -1.069,0.274 -2.249,0.114 -3.41,-0.556 z" id="path136"></path>
&#x9;<path style="fill:#173d7a" d="m 497.224,329.532 -16.365,-2.161 -105.637,-60.99 c -3.387,-1.955 -9.302,-1.71 -13.213,0.548 l -74.854,43.201 -9.895,-1.307 v 5.615 l 0.01,0.001 c -0.065,1.298 0.674,2.546 2.272,3.468 l 119.718,69.119 c 3.387,1.955 9.302,1.71 13.213,-0.548 l 81.519,-47.049 c 2.2,-1.27 3.297,-2.906 3.232,-4.443 v 0 z" id="path137"></path>
&#x9;<path style="fill:#396caa" d="m 417.852,290.993 -7.505,-4.333 h -82.513 l -40.678,23.47 -9.895,-1.307 v 5.615 l 0.01,0.001 c -0.065,1.298 0.674,2.546 2.272,3.468 l 119.718,69.119 c 1.79,1.033 4.286,1.446 6.819,1.278 z" id="path138"></path>
&#x9;<path style="fill:#5793ce" d="m 281.652,309.403 -4.391,-0.58 v 5.615 l 0.01,0.001 c -0.065,1.298 0.674,2.546 2.272,3.468 l 2.11,1.218 v -9.722 z" id="path139"></path>
&#x9;<path style="fill:#274f89" d="m 400.466,387.587 c 3.21,1.217 7.8,0.952 11.227,-0.697 v -12.523 h -11.227 z" id="path140"></path>
&#x9;<path style="fill:#d4ecff" d="M 399.26,381.419 279.542,312.3 c -3.387,-1.955 -2.962,-5.371 0.949,-7.628 l 81.519,-47.049 c 3.911,-2.258 9.826,-2.503 13.213,-0.548 l 119.718,69.119 c 3.387,1.955 2.962,5.371 -0.949,7.629 l -81.519,47.049 c -3.911,2.257 -9.826,2.502 -13.213,0.547 z" id="path141"></path>
&#x9;<path style="fill:#ffffff" d="m 493.992,331.771 -81.519,47.049 c -3.91,2.258 -9.826,2.503 -13.213,0.548 l -119.718,-69.12 c -1.11,-0.641 -1.803,-1.44 -2.105,-2.303 -0.53,1.602 0.146,3.222 2.105,4.354 l 119.718,69.119 c 3.387,1.955 9.302,1.71 13.213,-0.548 l 81.519,-47.049 c 2.628,-1.518 3.674,-3.557 3.054,-5.326 -0.386,1.168 -1.407,2.325 -3.054,3.276 z" id="path142"></path>
&#x9;<g id="g216">
&#x9;&#x9;<path style="fill:#5793ce" d="m 330.46,289.417 -5.417,-3.127 c -0.435,-0.251 -0.38,-0.69 0.122,-0.98 l 6.394,-3.691 c 0.502,-0.29 1.262,-0.321 1.697,-0.07 l 5.417,3.127 c 0.435,0.251 0.38,0.69 -0.122,0.98 l -6.394,3.691 c -0.503,0.29 -1.262,0.321 -1.697,0.07 z" id="path143"></path>
&#x9;&#x9;<path style="fill:#5793ce" d="m 338.825,294.247 -5.417,-3.127 c -0.435,-0.251 -0.38,-0.69 0.122,-0.98 l 6.394,-3.691 c 0.502,-0.29 1.262,-0.321 1.697,-0.07 l 5.417,3.127 c 0.435,0.251 0.38,0.69 -0.122,0.98 l -6.394,3.691 c -0.503,0.289 -1.262,0.321 -1.697,0.07 z" id="path144"></path>
&#x9;&#x9;<path style="fill:#5793ce" d="m 347.19,299.076 -5.417,-3.127 c -0.435,-0.251 -0.38,-0.69 0.122,-0.98 l 6.394,-3.691 c 0.502,-0.29 1.262,-0.321 1.697,-0.07 l 5.417,3.127 c 0.435,0.251 0.38,0.69 -0.122,0.98 l -6.394,3.691 c -0.503,0.29 -1.262,0.321 -1.697,0.07 z" id="path145"></path>
&#x9;&#x9;<path style="fill:#5793ce" d="m 358.759,295.088 -5.417,-3.127 c -0.435,-0.251 -0.38,-0.69 0.122,-0.98 l 5.367,-3.099 c 0.502,-0.29 1.262,-0.321 1.697,-0.07 l 5.417,3.127 c 0.435,0.251 0.38,0.69 -0.122,0.98 l -5.367,3.099 c -0.502,0.289 -1.262,0.321 -1.697,0.07 z" id="path146"></path>
&#x9;&#x9;<path style="fill:#5793ce" d="m 367.124,299.917 -5.417,-3.127 c -0.435,-0.251 -0.38,-0.69 0.122,-0.98 l 5.367,-3.099 c 0.502,-0.29 1.262,-0.321 1.697,-0.07 l 5.417,3.127 c 0.435,0.251 0.38,0.69 -0.122,0.98 l -5.367,3.099 c -0.502,0.29 -1.262,0.321 -1.697,0.07 z" id="path147"></path>
&#x9;&#x9;<path style="fill:#5793ce" d="m 375.49,304.747 -5.417,-3.127 c -0.435,-0.251 -0.38,-0.69 0.122,-0.98 l 5.367,-3.099 c 0.502,-0.29 1.262,-0.321 1.697,-0.07 l 5.417,3.127 c 0.435,0.251 0.38,0.69 -0.122,0.98 l -5.367,3.099 c -0.503,0.29 -1.263,0.321 -1.697,0.07 z" id="path148"></path>
&#x9;&#x9;<path style="fill:#5793ce" d="m 383.855,309.577 -5.417,-3.127 c -0.435,-0.251 -0.38,-0.69 0.122,-0.98 l 5.367,-3.099 c 0.502,-0.29 1.262,-0.321 1.697,-0.07 l 5.417,3.127 c 0.435,0.251 0.38,0.69 -0.122,0.98 l -5.367,3.099 c -0.503,0.289 -1.263,0.321 -1.697,0.07 z" id="path149"></path>
&#x9;&#x9;<path style="fill:#5793ce" d="m 392.22,314.406 -5.417,-3.127 c -0.435,-0.251 -0.38,-0.69 0.122,-0.98 l 5.367,-3.099 c 0.502,-0.29 1.262,-0.321 1.697,-0.07 l 5.417,3.127 c 0.435,0.251 0.38,0.69 -0.122,0.98 l -5.367,3.099 c -0.503,0.29 -1.262,0.321 -1.697,0.07 z" id="path150"></path>
&#x9;&#x9;<path style="fill:#5793ce" d="m 400.585,319.236 -5.417,-3.127 c -0.435,-0.251 -0.38,-0.69 0.122,-0.98 l 5.367,-3.099 c 0.502,-0.29 1.262,-0.321 1.697,-0.07 l 5.417,3.127 c 0.435,0.251 0.38,0.69 -0.122,0.98 l -5.367,3.099 c -0.503,0.289 -1.262,0.321 -1.697,0.07 z" id="path151"></path>
&#x9;&#x9;<path style="fill:#5793ce" d="m 408.95,324.065 -5.417,-3.127 c -0.435,-0.251 -0.38,-0.69 0.122,-0.98 l 5.367,-3.099 c 0.502,-0.29 1.262,-0.321 1.697,-0.07 l 5.417,3.127 c 0.435,0.251 0.38,0.69 -0.122,0.98 l -5.367,3.099 c -0.502,0.29 -1.262,0.321 -1.697,0.07 z" id="path152"></path>
&#x9;&#x9;<path style="fill:#5793ce" d="m 417.315,328.895 -5.417,-3.127 c -0.435,-0.251 -0.38,-0.69 0.122,-0.98 l 5.367,-3.099 c 0.502,-0.29 1.262,-0.321 1.697,-0.07 l 5.417,3.127 c 0.435,0.251 0.38,0.69 -0.122,0.98 l -5.367,3.099 c -0.502,0.29 -1.262,0.321 -1.697,0.07 z" id="path153"></path>
&#x9;&#x9;<path style="fill:#5793ce" d="m 425.68,333.724 -5.417,-3.127 c -0.435,-0.251 -0.38,-0.69 0.122,-0.98 l 5.367,-3.099 c 0.502,-0.29 1.262,-0.321 1.697,-0.07 l 5.417,3.127 c 0.435,0.251 0.38,0.69 -0.122,0.98 l -5.367,3.099 c -0.502,0.29 -1.262,0.322 -1.697,0.07 z" id="path154"></path>
&#x9;&#x9;<path style="fill:#5793ce" d="m 434.045,338.554 -5.417,-3.127 c -0.435,-0.251 -0.38,-0.69 0.122,-0.98 l 5.367,-3.099 c 0.502,-0.29 1.262,-0.321 1.697,-0.07 l 5.417,3.127 c 0.435,0.251 0.38,0.69 -0.122,0.98 l -5.367,3.099 c -0.502,0.29 -1.262,0.321 -1.697,0.07 z" id="path155"></path>
&#x9;&#x9;<path style="fill:#5793ce" d="m 371.085,292.801 -5.417,-3.127 c -0.435,-0.251 -0.38,-0.69 0.122,-0.98 l 5.367,-3.099 c 0.502,-0.29 1.262,-0.321 1.697,-0.07 l 5.417,3.127 c 0.435,0.251 0.38,0.69 -0.122,0.98 l -5.367,3.099 c -0.503,0.29 -1.262,0.321 -1.697,0.07 z" id="path156"></path>
&#x9;&#x9;<path style="fill:#5793ce" d="m 362.595,287.9 -5.417,-3.127 c -0.435,-0.251 -0.38,-0.69 0.122,-0.98 l 5.367,-3.099 c 0.502,-0.29 1.262,-0.321 1.697,-0.07 l 5.417,3.127 c 0.435,0.251 0.38,0.69 -0.122,0.98 l -5.367,3.099 c -0.503,0.289 -1.262,0.321 -1.697,0.07 z" id="path157"></path>
&#x9;&#x9;<path style="fill:#5793ce" d="m 354.091,282.99 -11.666,-6.736 c -0.435,-0.251 -0.38,-0.69 0.122,-0.98 l 5.367,-3.099 c 0.502,-0.29 1.262,-0.322 1.697,-0.07 l 11.666,6.736 c 0.435,0.251 0.38,0.69 -0.122,0.98 l -5.367,3.099 c -0.503,0.29 -1.262,0.321 -1.697,0.07 z" id="path158"></path>
&#x9;&#x9;<path style="fill:#5793ce" d="m 360.035,277.019 -9.467,-5.466 c -0.435,-0.251 -0.38,-0.69 0.122,-0.98 l 5.367,-3.099 c 0.502,-0.29 1.262,-0.322 1.697,-0.07 l 9.468,5.466 c 0.435,0.251 0.38,0.69 -0.122,0.98 l -5.367,3.099 c -0.503,0.29 -1.263,0.321 -1.698,0.07 z" id="path159"></path>
&#x9;&#x9;<path style="fill:#5793ce" d="m 379.45,297.631 -5.417,-3.127 c -0.435,-0.251 -0.38,-0.69 0.122,-0.98 l 5.367,-3.099 c 0.502,-0.29 1.262,-0.321 1.697,-0.07 l 5.417,3.127 c 0.435,0.251 0.38,0.69 -0.122,0.98 l -5.367,3.099 c -0.503,0.289 -1.262,0.321 -1.697,0.07 z" id="path160"></path>
&#x9;&#x9;<path style="fill:#5793ce" d="m 387.815,302.46 -5.417,-3.127 c -0.435,-0.251 -0.38,-0.69 0.122,-0.98 l 5.367,-3.099 c 0.502,-0.29 1.262,-0.321 1.697,-0.07 l 5.417,3.127 c 0.435,0.251 0.38,0.69 -0.122,0.98 l -5.367,3.099 c -0.503,0.29 -1.262,0.321 -1.697,0.07 z" id="path161"></path>
&#x9;&#x9;<path style="fill:#5793ce" d="m 396.18,307.29 -5.417,-3.127 c -0.435,-0.251 -0.38,-0.69 0.122,-0.98 l 5.367,-3.099 c 0.502,-0.29 1.262,-0.321 1.697,-0.07 l 5.417,3.127 c 0.435,0.251 0.38,0.69 -0.122,0.98 l -5.367,3.099 c -0.502,0.29 -1.262,0.321 -1.697,0.07 z" id="path162"></path>
&#x9;&#x9;<path style="fill:#5793ce" d="m 404.545,312.12 -5.417,-3.127 c -0.435,-0.251 -0.38,-0.69 0.122,-0.98 l 5.367,-3.099 c 0.502,-0.29 1.262,-0.321 1.697,-0.07 l 5.417,3.127 c 0.435,0.251 0.38,0.69 -0.122,0.98 l -5.367,3.099 c -0.502,0.289 -1.262,0.321 -1.697,0.07 z" id="path163"></path>
&#x9;&#x9;<path style="fill:#5793ce" d="m 412.91,316.949 -5.417,-3.127 c -0.435,-0.251 -0.38,-0.69 0.122,-0.98 l 5.367,-3.099 c 0.502,-0.29 1.262,-0.321 1.697,-0.07 l 5.417,3.127 c 0.435,0.251 0.38,0.69 -0.122,0.98 l -5.367,3.099 c -0.502,0.29 -1.262,0.321 -1.697,0.07 z" id="path164"></path>
&#x9;&#x9;<path style="fill:#5793ce" d="m 421.275,321.779 -5.417,-3.127 c -0.435,-0.251 -0.38,-0.69 0.122,-0.98 l 5.367,-3.099 c 0.502,-0.29 1.262,-0.321 1.697,-0.07 l 5.417,3.127 c 0.435,0.251 0.38,0.69 -0.122,0.98 l -5.367,3.099 c -0.502,0.289 -1.262,0.321 -1.697,0.07 z" id="path165"></path>
&#x9;&#x9;<path style="fill:#5793ce" d="m 429.64,326.608 -5.417,-3.127 c -0.435,-0.251 -0.38,-0.69 0.122,-0.98 l 5.367,-3.099 c 0.502,-0.29 1.262,-0.321 1.697,-0.07 l 5.417,3.127 c 0.435,0.251 0.38,0.69 -0.122,0.98 l -5.367,3.099 c -0.502,0.29 -1.262,0.321 -1.697,0.07 z" id="path166"></path>
&#x9;&#x9;<path style="fill:#5793ce" d="m 438.005,331.438 -5.417,-3.127 c -0.435,-0.251 -0.38,-0.69 0.122,-0.98 l 5.367,-3.099 c 0.502,-0.29 1.262,-0.321 1.697,-0.07 l 5.417,3.127 c 0.435,0.251 0.38,0.69 -0.122,0.98 l -5.367,3.099 c -0.502,0.29 -1.262,0.321 -1.697,0.07 z" id="path167"></path>
&#x9;&#x9;<path style="fill:#5793ce" d="m 446.371,336.268 -5.417,-3.127 c -0.435,-0.251 -0.38,-0.69 0.122,-0.98 l 5.367,-3.099 c 0.502,-0.29 1.262,-0.321 1.697,-0.07 l 5.417,3.127 c 0.435,0.251 0.38,0.69 -0.122,0.98 l -5.367,3.099 c -0.503,0.289 -1.262,0.321 -1.697,0.07 z" id="path168"></path>
&#x9;&#x9;<path style="fill:#5793ce" d="m 461.242,344.854 -11.819,-6.824 c -0.435,-0.251 -0.38,-0.69 0.122,-0.98 l 5.367,-3.099 c 0.502,-0.29 1.262,-0.322 1.697,-0.07 l 11.819,6.824 c 0.435,0.251 0.38,0.69 -0.122,0.98 l -5.367,3.099 c -0.503,0.289 -1.262,0.321 -1.697,0.07 z" id="path169"></path>
&#x9;&#x9;<path style="fill:#5793ce" d="m 477.528,335.451 -9.976,-5.759 c -0.435,-0.251 -0.38,-0.69 0.122,-0.98 l 5.367,-3.099 c 0.502,-0.29 1.262,-0.322 1.697,-0.07 l 9.976,5.759 c 0.435,0.251 0.38,0.69 -0.122,0.98 l -5.367,3.099 c -0.503,0.29 -1.262,0.321 -1.697,0.07 z" id="path170"></path>
&#x9;&#x9;<path style="fill:#5793ce" d="m 394.099,296.686 -5.417,-3.127 c -0.435,-0.251 -0.38,-0.69 0.122,-0.98 l 5.367,-3.099 c 0.502,-0.29 1.262,-0.322 1.697,-0.07 l 5.417,3.127 c 0.435,0.251 0.38,0.69 -0.122,0.98 l -5.367,3.099 c -0.503,0.289 -1.262,0.321 -1.697,0.07 z" id="path171"></path>
&#x9;&#x9;<path style="fill:#5793ce" d="m 385.526,291.736 -5.417,-3.127 c -0.435,-0.251 -0.38,-0.69 0.122,-0.98 l 5.367,-3.099 c 0.502,-0.29 1.262,-0.321 1.697,-0.07 l 5.417,3.127 c 0.435,0.251 0.38,0.69 -0.122,0.98 l -5.367,3.099 c -0.503,0.29 -1.262,0.321 -1.697,0.07 z" id="path172"></path>
&#x9;&#x9;<path style="fill:#5793ce" d="m 376.953,286.786 -5.417,-3.127 c -0.435,-0.251 -0.38,-0.69 0.122,-0.98 l 5.367,-3.099 c 0.502,-0.29 1.262,-0.321 1.697,-0.07 l 5.417,3.127 c 0.435,0.251 0.38,0.69 -0.122,0.98 l -5.367,3.099 c -0.503,0.29 -1.263,0.322 -1.697,0.07 z" id="path173"></path>
&#x9;&#x9;<path style="fill:#5793ce" d="m 368.379,281.837 -5.417,-3.127 c -0.435,-0.251 -0.38,-0.69 0.122,-0.98 l 5.367,-3.099 c 0.502,-0.29 1.262,-0.322 1.697,-0.07 l 5.417,3.127 c 0.435,0.251 0.38,0.69 -0.122,0.98 l -5.367,3.099 c -0.502,0.289 -1.262,0.321 -1.697,0.07 z" id="path174"></path>
&#x9;&#x9;<path style="fill:#5793ce" d="m 402.464,301.516 -5.417,-3.127 c -0.435,-0.251 -0.38,-0.69 0.122,-0.98 l 5.367,-3.099 c 0.502,-0.29 1.262,-0.322 1.697,-0.07 l 5.417,3.127 c 0.435,0.251 0.38,0.69 -0.122,0.98 l -5.367,3.099 c -0.502,0.289 -1.262,0.321 -1.697,0.07 z" id="path175"></path>
&#x9;&#x9;<path style="fill:#5793ce" d="m 410.829,306.345 -5.417,-3.127 c -0.435,-0.251 -0.38,-0.69 0.122,-0.98 l 5.367,-3.099 c 0.502,-0.29 1.262,-0.322 1.697,-0.07 l 5.417,3.127 c 0.435,0.251 0.38,0.69 -0.122,0.98 l -5.367,3.099 c -0.502,0.29 -1.262,0.321 -1.697,0.07 z" id="path176"></path>
&#x9;&#x9;<path style="fill:#5793ce" d="m 419.194,311.175 -5.417,-3.127 c -0.435,-0.251 -0.38,-0.69 0.122,-0.98 l 5.367,-3.099 c 0.502,-0.29 1.262,-0.322 1.697,-0.07 l 5.417,3.127 c 0.435,0.251 0.38,0.69 -0.122,0.98 l -5.367,3.099 c -0.502,0.289 -1.262,0.321 -1.697,0.07 z" id="path177"></path>
&#x9;&#x9;<path style="fill:#5793ce" d="m 427.559,316.004 -5.417,-3.127 c -0.435,-0.251 -0.38,-0.69 0.122,-0.98 l 5.367,-3.099 c 0.502,-0.29 1.262,-0.321 1.697,-0.07 l 5.417,3.127 c 0.435,0.251 0.38,0.69 -0.122,0.98 l -5.367,3.099 c -0.502,0.29 -1.262,0.321 -1.697,0.07 z" id="path178"></path>
&#x9;&#x9;<path style="fill:#5793ce" d="m 435.924,320.834 -5.417,-3.127 c -0.435,-0.251 -0.38,-0.69 0.122,-0.98 l 5.367,-3.099 c 0.502,-0.29 1.262,-0.321 1.697,-0.07 l 5.417,3.127 c 0.435,0.251 0.38,0.69 -0.122,0.98 l -5.367,3.099 c -0.502,0.289 -1.262,0.321 -1.697,0.07 z" id="path179"></path>
&#x9;&#x9;<path style="fill:#5793ce" d="m 444.289,325.664 -5.417,-3.127 c -0.435,-0.251 -0.38,-0.69 0.122,-0.98 l 5.367,-3.099 c 0.502,-0.29 1.262,-0.321 1.697,-0.07 l 5.417,3.127 c 0.435,0.251 0.38,0.69 -0.122,0.98 l -5.367,3.099 c -0.502,0.289 -1.262,0.321 -1.697,0.07 z" id="path180"></path>
&#x9;&#x9;<path style="fill:#5793ce" d="m 452.655,330.493 -5.417,-3.127 c -0.435,-0.251 -0.38,-0.69 0.122,-0.98 l 5.367,-3.099 c 0.502,-0.29 1.262,-0.321 1.697,-0.07 l 5.417,3.127 c 0.435,0.251 0.38,0.69 -0.122,0.98 l -5.367,3.099 c -0.503,0.29 -1.262,0.321 -1.697,0.07 z" id="path181"></path>
&#x9;&#x9;<path style="fill:#5793ce" d="m 461.02,335.323 -5.417,-3.127 c -0.435,-0.251 -0.38,-0.69 0.122,-0.98 l 5.367,-3.099 c 0.502,-0.29 1.262,-0.321 1.697,-0.07 l 5.417,3.127 c 0.435,0.251 0.38,0.69 -0.122,0.98 l -5.367,3.099 c -0.503,0.289 -1.262,0.321 -1.697,0.07 z" id="path182"></path>
&#x9;&#x9;<path style="fill:#5793ce" d="m 469.385,340.152 -5.417,-3.127 c -0.435,-0.251 -0.38,-0.69 0.122,-0.98 l 5.367,-3.099 c 0.502,-0.29 1.262,-0.321 1.697,-0.07 l 5.417,3.127 c 0.435,0.251 0.38,0.69 -0.122,0.98 l -5.367,3.099 c -0.503,0.29 -1.262,0.321 -1.697,0.07 z" id="path183"></path>
&#x9;&#x9;<path style="fill:#5793ce" d="m 389.694,284.74 -5.417,-3.127 c -0.435,-0.251 -0.38,-0.69 0.122,-0.98 l 5.367,-3.099 c 0.502,-0.29 1.262,-0.321 1.697,-0.07 l 5.417,3.127 c 0.435,0.251 0.38,0.69 -0.122,0.98 l -5.367,3.099 c -0.502,0.29 -1.262,0.321 -1.697,0.07 z" id="path184"></path>
&#x9;&#x9;<path style="fill:#5793ce" d="m 381.371,279.935 -5.417,-3.127 c -0.435,-0.251 -0.38,-0.69 0.122,-0.98 l 5.367,-3.099 c 0.502,-0.29 1.262,-0.321 1.697,-0.07 l 5.417,3.127 c 0.435,0.251 0.38,0.69 -0.122,0.98 l -5.367,3.099 c -0.503,0.289 -1.262,0.321 -1.697,0.07 z" id="path185"></path>
&#x9;&#x9;<path style="fill:#5793ce" d="m 373.047,275.129 -5.417,-3.127 c -0.435,-0.251 -0.38,-0.69 0.122,-0.98 l 5.367,-3.099 c 0.502,-0.29 1.262,-0.321 1.697,-0.07 l 5.417,3.127 c 0.435,0.251 0.38,0.69 -0.122,0.98 l -5.367,3.099 c -0.502,0.29 -1.262,0.321 -1.697,0.07 z" id="path186"></path>
&#x9;&#x9;<path style="fill:#5793ce" d="m 364.724,270.323 -5.417,-3.127 c -0.435,-0.251 -0.38,-0.69 0.122,-0.98 l 5.367,-3.099 c 0.502,-0.29 1.262,-0.322 1.697,-0.07 l 5.417,3.127 c 0.435,0.251 0.38,0.69 -0.122,0.98 l -5.367,3.099 c -0.503,0.29 -1.262,0.322 -1.697,0.07 z" id="path187"></path>
&#x9;&#x9;<path style="fill:#5793ce" d="m 373.283,265.382 -5.417,-3.127 c -0.435,-0.251 -0.38,-0.69 0.122,-0.98 l 1.774,-1.024 c 0.502,-0.29 1.262,-0.321 1.697,-0.07 l 5.417,3.127 c 0.435,0.251 0.38,0.69 -0.122,0.98 l -1.774,1.024 c -0.503,0.29 -1.262,0.321 -1.697,0.07 z" id="path188"></path>
&#x9;&#x9;<path style="fill:#5793ce" d="m 384.145,271.653 -5.417,-3.127 c -0.435,-0.251 -0.38,-0.69 0.122,-0.98 l 1.774,-1.024 c 0.502,-0.29 1.262,-0.321 1.697,-0.07 l 5.417,3.127 c 0.435,0.251 0.38,0.69 -0.122,0.98 l -1.774,1.024 c -0.502,0.29 -1.262,0.321 -1.697,0.07 z" id="path189"></path>
&#x9;&#x9;<path style="fill:#5793ce" d="m 392.434,276.439 -5.417,-3.127 c -0.435,-0.251 -0.38,-0.69 0.122,-0.98 l 1.774,-1.024 c 0.502,-0.29 1.262,-0.321 1.697,-0.07 l 5.417,3.127 c 0.435,0.251 0.38,0.69 -0.122,0.98 l -1.774,1.024 c -0.503,0.289 -1.262,0.321 -1.697,0.07 z" id="path190"></path>
&#x9;&#x9;<path style="fill:#5793ce" d="m 400.723,281.224 -5.417,-3.127 c -0.435,-0.251 -0.38,-0.69 0.122,-0.98 l 1.774,-1.024 c 0.502,-0.29 1.262,-0.322 1.697,-0.07 l 5.417,3.127 c 0.435,0.251 0.38,0.69 -0.122,0.98 l -1.774,1.024 c -0.503,0.29 -1.263,0.321 -1.697,0.07 z" id="path191"></path>
&#x9;&#x9;<path style="fill:#5793ce" d="m 409.011,286.01 -5.417,-3.127 c -0.435,-0.251 -0.38,-0.69 0.122,-0.98 l 1.774,-1.024 c 0.502,-0.29 1.262,-0.321 1.697,-0.07 l 5.417,3.127 c 0.435,0.251 0.38,0.69 -0.122,0.98 l -1.774,1.024 c -0.502,0.289 -1.262,0.321 -1.697,0.07 z" id="path192"></path>
&#x9;&#x9;<path style="fill:#5793ce" d="m 455.286,312.727 -5.417,-3.127 c -0.435,-0.251 -0.38,-0.69 0.122,-0.98 l 1.774,-1.024 c 0.502,-0.29 1.262,-0.322 1.697,-0.07 l 5.417,3.127 c 0.435,0.251 0.38,0.69 -0.122,0.98 l -1.774,1.024 c -0.502,0.289 -1.262,0.321 -1.697,0.07 z" id="path193"></path>
&#x9;&#x9;<path style="fill:#5793ce" d="m 463.575,317.512 -5.417,-3.127 c -0.435,-0.251 -0.38,-0.69 0.122,-0.98 l 1.774,-1.024 c 0.502,-0.29 1.262,-0.321 1.697,-0.07 l 5.417,3.127 c 0.435,0.251 0.38,0.69 -0.122,0.98 l -1.774,1.024 c -0.502,0.29 -1.262,0.321 -1.697,0.07 z" id="path194"></path>
&#x9;&#x9;<path style="fill:#5793ce" d="m 471.864,322.298 -5.417,-3.127 c -0.435,-0.251 -0.38,-0.69 0.122,-0.98 l 1.774,-1.024 c 0.502,-0.29 1.262,-0.322 1.697,-0.07 l 5.417,3.127 c 0.435,0.251 0.38,0.69 -0.122,0.98 l -1.774,1.024 c -0.502,0.289 -1.262,0.321 -1.697,0.07 z" id="path195"></path>
&#x9;&#x9;<path style="fill:#5793ce" d="m 480.153,327.083 -5.417,-3.127 c -0.435,-0.251 -0.38,-0.69 0.122,-0.98 l 1.774,-1.024 c 0.502,-0.29 1.262,-0.321 1.697,-0.07 l 5.417,3.127 c 0.435,0.251 0.38,0.69 -0.122,0.98 l -1.774,1.024 c -0.502,0.29 -1.262,0.322 -1.697,0.07 z" id="path196"></path>
&#x9;&#x9;<path style="fill:#5793ce" d="m 398.059,289.57 -5.417,-3.127 c -0.435,-0.251 -0.38,-0.69 0.122,-0.98 l 5.367,-3.099 c 0.502,-0.29 1.262,-0.322 1.697,-0.07 l 5.417,3.127 c 0.435,0.251 0.38,0.69 -0.122,0.98 l -5.367,3.099 c -0.502,0.289 -1.262,0.321 -1.697,0.07 z" id="path197"></path>
&#x9;&#x9;<path style="fill:#5793ce" d="m 406.424,294.399 -5.417,-3.127 c -0.435,-0.251 -0.38,-0.69 0.122,-0.98 l 5.367,-3.099 c 0.502,-0.29 1.262,-0.322 1.697,-0.07 l 5.417,3.127 c 0.435,0.251 0.38,0.69 -0.122,0.98 l -5.367,3.099 c -0.502,0.29 -1.262,0.322 -1.697,0.07 z" id="path198"></path>
&#x9;&#x9;<path style="fill:#5793ce" d="m 414.789,299.229 -5.417,-3.127 c -0.435,-0.251 -0.38,-0.69 0.122,-0.98 l 5.367,-3.099 c 0.502,-0.29 1.262,-0.321 1.697,-0.07 l 5.417,3.127 c 0.435,0.251 0.38,0.69 -0.122,0.98 l -5.367,3.099 c -0.502,0.29 -1.262,0.321 -1.697,0.07 z" id="path199"></path>
&#x9;&#x9;<path style="fill:#5793ce" d="m 423.155,304.059 -5.417,-3.127 c -0.435,-0.251 -0.38,-0.69 0.122,-0.98 l 5.367,-3.099 c 0.502,-0.29 1.262,-0.321 1.697,-0.07 l 5.417,3.127 c 0.435,0.251 0.38,0.69 -0.122,0.98 l -5.367,3.099 c -0.503,0.289 -1.262,0.321 -1.697,0.07 z" id="path200"></path>
&#x9;&#x9;<path style="fill:#5793ce" d="m 431.52,308.888 -5.417,-3.127 c -0.435,-0.251 -0.38,-0.69 0.122,-0.98 l 5.367,-3.099 c 0.502,-0.29 1.262,-0.321 1.697,-0.07 l 5.417,3.127 c 0.435,0.251 0.38,0.69 -0.122,0.98 l -5.367,3.099 c -0.503,0.29 -1.262,0.321 -1.697,0.07 z" id="path201"></path>
&#x9;&#x9;<path style="fill:#5793ce" d="m 439.885,313.718 -5.417,-3.127 c -0.435,-0.251 -0.38,-0.69 0.122,-0.98 l 5.367,-3.099 c 0.502,-0.29 1.262,-0.321 1.697,-0.07 l 5.417,3.127 c 0.435,0.251 0.38,0.69 -0.122,0.98 l -5.367,3.099 c -0.503,0.289 -1.262,0.321 -1.697,0.07 z" id="path202"></path>
&#x9;&#x9;<path style="fill:#5793ce" d="m 448.25,318.547 -5.417,-3.127 c -0.435,-0.251 -0.38,-0.69 0.122,-0.98 l 5.367,-3.099 c 0.502,-0.29 1.262,-0.321 1.697,-0.07 l 5.417,3.127 c 0.435,0.251 0.38,0.69 -0.122,0.98 l -5.367,3.099 c -0.503,0.29 -1.262,0.321 -1.697,0.07 z" id="path203"></path>
&#x9;&#x9;<path style="fill:#5793ce" d="m 456.615,323.377 -5.417,-3.127 c -0.435,-0.251 -0.38,-0.69 0.122,-0.98 l 5.367,-3.099 c 0.502,-0.29 1.262,-0.321 1.697,-0.07 l 5.417,3.127 c 0.435,0.251 0.38,0.69 -0.122,0.98 l -5.367,3.099 c -0.502,0.29 -1.262,0.321 -1.697,0.07 z" id="path204"></path>
&#x9;&#x9;<path style="fill:#5793ce" d="m 464.98,328.207 -5.417,-3.127 c -0.435,-0.251 -0.38,-0.69 0.122,-0.98 l 5.367,-3.099 c 0.502,-0.29 1.262,-0.321 1.697,-0.07 l 5.417,3.127 c 0.435,0.251 0.38,0.69 -0.122,0.98 l -5.367,3.099 c -0.502,0.289 -1.262,0.321 -1.697,0.07 z" id="path205"></path>
&#x9;&#x9;<path style="fill:#5793ce" d="m 350.235,290.166 -15.953,-9.211 c -0.435,-0.251 -0.38,-0.69 0.122,-0.98 l 5.367,-3.099 c 0.502,-0.29 1.262,-0.321 1.697,-0.07 l 15.953,9.21 c 0.435,0.251 0.38,0.69 -0.122,0.98 l -5.367,3.099 c -0.503,0.291 -1.263,0.322 -1.697,0.071 z" id="path206"></path>
&#x9;&#x9;<path style="fill:#5793ce" d="m 453.002,349.499 -15.953,-9.21 c -0.435,-0.251 -0.38,-0.69 0.122,-0.98 l 5.367,-3.099 c 0.502,-0.29 1.262,-0.321 1.697,-0.07 l 15.953,9.21 c 0.435,0.251 0.38,0.69 -0.122,0.98 l -5.367,3.099 c -0.502,0.289 -1.262,0.321 -1.697,0.07 z" id="path207"></path>
&#x9;&#x9;<path style="fill:#5793ce" d="m 419.549,340.853 -5.417,-3.127 c -0.435,-0.251 -0.38,-0.69 0.122,-0.98 l 6.394,-3.691 c 0.502,-0.29 1.262,-0.321 1.697,-0.07 l 5.417,3.127 c 0.435,0.251 0.38,0.69 -0.122,0.98 l -6.394,3.691 c -0.503,0.289 -1.262,0.321 -1.697,0.07 z" id="path208"></path>
&#x9;&#x9;<path style="fill:#5793ce" d="m 358.801,305.78 -8.663,-5.002 c -0.435,-0.251 -0.38,-0.69 0.122,-0.98 l 6.394,-3.691 c 0.502,-0.29 1.262,-0.321 1.697,-0.07 l 8.663,5.001 c 0.435,0.251 0.38,0.69 -0.122,0.98 l -6.394,3.691 c -0.502,0.291 -1.262,0.322 -1.697,0.071 z" id="path209"></path>
&#x9;&#x9;<path style="fill:#5793ce" d="m 411.489,336.199 -8.663,-5.001 c -0.435,-0.251 -0.38,-0.69 0.122,-0.98 l 6.394,-3.691 c 0.502,-0.29 1.262,-0.322 1.697,-0.07 l 8.663,5.002 c 0.435,0.251 0.38,0.69 -0.122,0.98 l -6.394,3.691 c -0.503,0.289 -1.262,0.32 -1.697,0.069 z" id="path210"></path>
&#x9;&#x9;<path style="fill:#5793ce" d="m 370.87,312.748 -8.663,-5.002 c -0.435,-0.251 -0.38,-0.69 0.122,-0.98 l 6.394,-3.691 c 0.502,-0.29 1.262,-0.321 1.697,-0.07 l 8.663,5.002 c 0.435,0.251 0.38,0.69 -0.122,0.98 l -6.394,3.691 c -0.502,0.29 -1.262,0.321 -1.697,0.07 z" id="path211"></path>
&#x9;&#x9;<path style="fill:#5793ce" d="m 370.478,303.039 37.664,21.745 c 0.467,0.27 0.467,0.707 0,0.977 l -6.52,3.764 c -0.467,0.27 -1.225,0.27 -1.692,0 L 362.266,307.78 Z" id="path212"></path>
&#x9;&#x9;<path style="fill:#5793ce" d="m 442.928,349.609 6.034,3.484 c 0.357,0.206 0.312,0.565 -0.1,0.803 l -2.616,1.51 c -0.412,0.238 -1.034,0.264 -1.391,0.058 l -6.034,-3.484 c -0.356,-0.206 -0.312,-0.565 0.1,-0.803 l 2.615,-1.51 c 0.413,-0.238 1.035,-0.264 1.392,-0.058 z" id="path213"></path>
&#x9;&#x9;<path style="fill:#5793ce" d="m 434.493,344.74 6.034,3.484 c 0.357,0.206 0.312,0.565 -0.1,0.803 l -2.615,1.51 c -0.412,0.238 -1.034,0.263 -1.391,0.058 l -6.034,-3.484 c -0.357,-0.206 -0.312,-0.565 0.1,-0.803 l 2.615,-1.51 c 0.412,-0.238 1.035,-0.264 1.391,-0.058 z" id="path214"></path>
&#x9;&#x9;<path style="fill:#5793ce" d="m 426.128,339.91 6.034,3.483 c 0.357,0.206 0.312,0.565 -0.1,0.803 l -2.616,1.51 c -0.412,0.238 -1.034,0.263 -1.391,0.058 l -6.034,-3.484 c -0.357,-0.206 -0.312,-0.565 0.1,-0.803 l 2.615,-1.51 c 0.413,-0.237 1.036,-0.263 1.392,-0.057 z" id="path215"></path>
&#x9;&#x9;<path style="fill:#5793ce" d="m 439.113,342.073 6.034,3.484 c 0.356,0.206 0.312,0.565 -0.1,0.803 l -2.615,1.51 c -0.412,0.238 -1.034,0.263 -1.391,0.058 l -6.034,-3.484 c -0.357,-0.206 -0.312,-0.565 0.1,-0.803 l 2.615,-1.51 c 0.412,-0.239 1.034,-0.264 1.391,-0.058 z" id="path216"></path>
&#x9;</g>
&#x9;<g id="g223">
&#x9;&#x9;<polygon style="fill:#d4ecff" points="472.156,247.834 427.097,221.82 427.677,218.891 472.736,244.905 " id="polygon216"></polygon>
&#x9;&#x9;<polygon style="fill:#d4ecff" points="456.018,252.777 424.565,234.618 425.145,231.688 456.598,249.848 " id="polygon217"></polygon>
&#x9;&#x9;<polygon style="fill:#ffffff" points="453.042,243.929 425.831,228.219 426.411,225.289 453.621,240.999 " id="polygon218"></polygon>
&#x9;&#x9;<polygon style="fill:#ff2c9c" points="470.89,254.233 457.284,246.378 457.864,243.449 471.469,251.304 " id="polygon219"></polygon>
&#x9;&#x9;<polygon style="fill:#d4ecff" points="422.299,196.263 408.694,188.408 409.273,185.479 422.879,193.334 " id="polygon220"></polygon>
&#x9;&#x9;<polygon style="fill:#ffffff" points="420.823,203.07 407.217,195.215 407.797,192.286 421.402,200.141 " id="polygon221"></polygon>
&#x9;&#x9;<polygon style="fill:#d4ecff" points="487.6,297.494 473.994,289.639 474.574,286.709 488.179,294.564 " id="polygon222"></polygon>
&#x9;&#x9;<polygon style="fill:#d4ecff" points="417.87,216.685 404.264,208.83 404.844,205.901 418.449,213.756 " id="polygon223"></polygon>
&#x9;</g>
&#x9;<g id="g226">
&#x9;&#x9;<path style="fill:#ff2c9c" d="m 447.266,218.794 c -0.434,0.946 -1.529,1.283 -2.446,0.753 -0.917,-0.53 -1.31,-1.726 -0.876,-2.672 0.434,-0.946 1.529,-1.283 2.446,-0.753 0.918,0.53 1.31,1.727 0.876,2.672 z" id="path223"></path>
&#x9;&#x9;<path style="fill:#ffffff" d="m 453.127,222.178 c -0.434,0.946 -1.529,1.283 -2.446,0.753 -0.917,-0.53 -1.31,-1.726 -0.876,-2.671 0.434,-0.946 1.529,-1.283 2.446,-0.753 0.917,0.529 1.309,1.725 0.876,2.671 z" id="path224"></path>
&#x9;&#x9;<path style="fill:#d4ecff" d="m 458.987,225.561 c -0.434,0.946 -1.529,1.283 -2.446,0.753 -0.917,-0.53 -1.31,-1.726 -0.876,-2.672 0.434,-0.946 1.529,-1.283 2.446,-0.753 0.917,0.53 1.309,1.726 0.876,2.672 z" id="path225"></path>
&#x9;&#x9;<path style="fill:#ff2c9c" d="m 464.847,228.945 c -0.434,0.946 -1.529,1.283 -2.446,0.753 -0.917,-0.53 -1.31,-1.726 -0.876,-2.671 0.434,-0.946 1.529,-1.283 2.446,-0.753 0.917,0.529 1.309,1.725 0.876,2.671 z" id="path226"></path>
&#x9;</g>
&#x9;<path style="fill:#ffffff" d="m 365.096,348.466 -34.073,-19.672 c -0.992,-0.573 -0.867,-1.573 0.278,-2.234 l 20.562,-11.871 c 1.145,-0.661 2.878,-0.733 3.87,-0.16 l 34.073,19.672 c 0.992,0.573 0.867,1.573 -0.278,2.234 l -20.562,11.871 c -1.146,0.661 -2.878,0.733 -3.87,0.16 z" id="path227"></path>
</g><g id="g235">
&#x9;<g id="g234">
&#x9;&#x9;<g id="g233">
&#x9;&#x9;&#x9;<g id="g228">
&#x9;&#x9;&#x9;&#x9;
&#x9;&#x9;&#x9;&#x9;&#x9;<rect x="330.048" y="255.073" transform="matrix(-0.632,0.7749,-0.7749,-0.632,747.062,169.4487)" style="fill:#5793ce" width="6.5050001" height="14.037" id="rect227"></rect>
&#x9;&#x9;&#x9;&#x9;<path style="fill:#5793ce" d="m 338.315,269.149 c 1.371,-0.521 2.673,-2.117 2.907,-3.565 0.234,-1.448 -0.687,-2.199 -2.058,-1.678 -1.371,0.521 -2.673,2.117 -2.907,3.565 -0.234,1.447 0.687,2.198 2.058,1.678 z" id="path228"></path>
&#x9;&#x9;&#x9;</g>
&#x9;&#x9;&#x9;<g id="g232">
&#x9;&#x9;&#x9;&#x9;
&#x9;&#x9;&#x9;&#x9;&#x9;<rect x="318.936" y="247.505" transform="matrix(-0.632,0.775,-0.775,-0.632,726.4713,164.3899)" style="fill:#5793ce" width="10.541" height="14.338" id="rect228"></rect>
&#x9;&#x9;&#x9;&#x9;<path style="fill:#396caa" d="m 331.707,256.595 3.681,3.002 c -0.531,2.03 -2.229,4.113 -4.111,5.041 l -3.681,-3.003 c 0.53,-2.03 2.229,-4.112 4.111,-5.04 z" id="path229"></path>
&#x9;&#x9;&#x9;&#x9;<path style="fill:#5793ce" d="m 329.074,263.453 c 2.222,-0.844 4.331,-3.43 4.711,-5.776 0.38,-2.346 -1.113,-3.564 -3.335,-2.72 -2.222,0.844 -4.331,3.43 -4.711,5.776 -0.38,2.347 1.113,3.564 3.335,2.72 z" id="path230"></path>
&#x9;&#x9;&#x9;&#x9;<path style="fill:#5793ce" d="m 317.959,254.388 c 2.222,-0.844 4.331,-3.43 4.711,-5.776 0.38,-2.346 -1.113,-3.564 -3.335,-2.72 -2.222,0.844 -4.331,3.43 -4.711,5.776 -0.38,2.346 1.113,3.564 3.335,2.72 z" id="path231"></path>
&#x9;&#x9;&#x9;&#x9;<path style="fill:#d4ecff" d="m 318.257,252.543 c 1.257,-0.477 2.45,-1.94 2.665,-3.267 0.215,-1.327 -0.63,-2.016 -1.886,-1.539 -1.256,0.477 -2.45,1.94 -2.665,3.267 -0.215,1.328 0.63,2.017 1.886,1.539 z" id="path232"></path>
&#x9;&#x9;&#x9;</g>
&#x9;&#x9;</g>
&#x9;</g>
&#x9;<path style="fill:#d4ecff" d="m 338.347,265.023 c 0.533,0.435 1.055,0.237 1.165,-0.442 0.11,-0.679 -0.233,-1.582 -0.766,-2.017 -0.533,-0.435 -1.055,-0.237 -1.165,0.442 -0.11,0.679 0.233,1.582 0.766,2.017 z" id="path234"></path>
</g><path style="fill:#5793ce" d="m 227.692,375.739 c -1.947,0 -3.895,-0.534 -5.676,-1.604 l -7.697,-4.559 c -0.412,-0.245 -0.549,-0.778 -0.305,-1.191 0.245,-0.412 0.775,-0.55 1.191,-0.305 l 7.7,4.561 c 3.026,1.818 6.623,1.806 9.626,-0.037 3.004,-1.842 4.648,-5.041 4.399,-8.559 l -0.164,-2.321 c -2.703,-37.999 -7.733,-108.73 22.076,-116.358 10.27,-2.628 17.3,-5.143 22.433,-6.98 15.297,-5.475 16.347,-5.174 37.436,10.753 0.384,0.289 0.459,0.834 0.17,1.217 -0.289,0.382 -0.834,0.459 -1.217,0.17 -20.948,-15.819 -21.225,-15.722 -35.804,-10.503 -5.165,1.848 -12.238,4.38 -22.586,7.027 -28.404,7.27 -23.441,77.059 -20.774,114.552 l 0.165,2.321 c 0.295,4.177 -1.658,7.977 -5.225,10.163 -1.796,1.102 -3.772,1.653 -5.748,1.653 z" id="path235"></path><g id="g249">
&#x9;<ellipse style="opacity:0.5;fill:#173d7a" cx="286.16699" cy="373.55301" rx="28.198999" ry="16.281" id="ellipse235"></ellipse>
&#x9;<g id="g242">
&#x9;&#x9;<path style="fill:#173d7a" d="m 299.62,366.576 c 1.588,0.678 2.588,2.449 2.456,4.352 -0.062,0.898 -0.171,1.735 -0.358,2.128 -0.505,1.061 -2.162,2.517 -4.806,1.472 -2.644,-1.045 -8.515,-6.562 -8.736,-10.173 -0.409,-6.708 7.262,0.435 11.444,2.221 z" id="path236"></path>
&#x9;&#x9;<path style="fill:#173d7a" d="m 284.086,377.671 c 0,0 0.634,3.868 0.326,4.577 -0.308,0.709 -2.148,2.222 -4.866,1.895 -2.718,-0.327 -10.54,-3.024 -12.281,-8.178 -2.7,-7.991 15.097,0.6 15.097,0.6 z" id="path237"></path>
&#x9;&#x9;<path style="fill:#d4ecff" d="m 276.444,315.843 -0.605,60.376 c 0.064,2.1 1.439,3.874 3.289,4.185 0.229,0.039 0.473,0.07 0.735,0.093 1.873,0.164 2.964,-0.639 3.587,-1.484 0.504,-0.684 0.77,-1.551 0.807,-2.438 l 0.771,-25.774 3.848,-23.044 5.324,40.786 c 0.085,1.103 0.613,2.123 1.463,2.685 0.587,0.388 1.383,0.69 2.427,0.658 1.524,-0.046 2.582,-0.861 3.227,-1.589 0.512,-0.577 0.781,-1.37 0.771,-2.184 l -2.11,-24.54 -0.785,-31.301 z" id="path238"></path>
&#x9;&#x9;<path style="fill:#ffc2b0" d="m 284.262,261.799 0.955,5.501 c 0,0 0.036,1.877 -2.06,2.397 -2.096,0.52 -2.744,-0.833 -2.744,-0.833 l -0.948,-6.196 z" id="path239"></path>
&#x9;&#x9;<path style="fill:#ffc2b0" d="m 273.075,261.964 c 3.502,3.488 8.849,3.779 11.944,0.651 3.095,-3.128 2.765,-8.492 -0.737,-11.979 -3.502,-3.488 -8.85,-3.779 -11.944,-0.651 -3.095,3.128 -2.765,8.492 0.737,11.979 z" id="path240"></path>
&#x9;&#x9;<path style="fill:#5793ce" d="m 284.013,267.401 c 0.145,-0.059 8.892,-5.691 12.126,0.203 5.272,9.61 4.962,40.546 3.297,44.553 -1.541,3.709 -5.388,6.443 -8.083,7.983 -2.399,1.37 -5.083,2.21 -7.846,2.232 -2.733,0.022 -7.975,-2.408 -7.784,-5.981 0.875,-16.435 -0.578,-30.288 -1.92,-43.729 -10e-4,-10e-4 1.676,-1.806 10.21,-5.261 z" id="path241"></path>
&#x9;&#x9;<path style="fill:#396caa" d="m 288.875,327.758 5.324,40.786 c 0.085,1.103 0.613,2.123 1.463,2.685 0.139,0.092 0.292,0.178 0.455,0.257 -1.105,-0.829 -4.332,-35.063 -4.929,-38.87 -0.598,-3.811 -2.313,-4.858 -2.313,-4.858 z" id="path242"></path>
&#x9;</g>
&#x9;<polygon style="fill:#ffc2b0" points="256.042,269.215 251.289,253.648 253.799,252.608 259.402,264.806 " id="polygon242"></polygon>
&#x9;<polygon style="fill:#ffc2b0" points="303.954,256.946 300.391,240.739 297.554,240.77 298.62,254.211 " id="polygon243"></polygon>
&#x9;<path style="fill:#5793ce" d="m 273.802,272.661 c 0,0 -8.539,1.703 -13.97,-8.239 -0.478,-0.876 -1.748,-1.006 -2.253,-0.237 -0.871,1.326 -2.025,3.358 -1.427,5.555 2.644,9.717 17,11.865 19.578,17.501 2.579,5.636 -1.928,-14.58 -1.928,-14.58 z" id="path243"></path>
&#x9;<path style="fill:#5793ce" d="m 289.561,265.382 c 0,0 6.763,0.52 7.736,-5.334 0.501,-3.014 0.652,-4.814 0.68,-5.852 0.019,-0.702 0.629,-1.234 1.326,-1.148 1.62,0.201 4.127,0.684 4.467,1.77 0.508,1.621 1.463,9.57 -5.217,21.766 -4.375,7.991 -8.992,-11.202 -8.992,-11.202 z" id="path244"></path>
&#x9;<path style="fill:#ffc2b0" d="m 300.406,240.779 -0.065,-1.848 c -0.023,-0.652 -0.213,-1.288 -0.552,-1.845 l -1.873,-3.077 -0.489,-0.616 c -0.451,-0.568 -1.258,-0.706 -1.872,-0.32 l -0.431,0.271 c -0.549,0.346 -0.866,0.964 -0.824,1.611 l 0.969,2.63 -1.225,-0.238 c -0.238,-0.046 -0.468,0.111 -0.511,0.35 v 0 c -0.036,0.203 0.074,0.403 0.265,0.48 l 2.001,0.807 1.817,2.572 z" id="path245"></path>
&#x9;<path style="fill:#ffc2b0" d="m 251.221,253.73 -0.567,-1.76 c -0.2,-0.621 -0.237,-1.284 -0.107,-1.923 l 0.717,-3.53 0.251,-0.745 c 0.231,-0.688 0.943,-1.091 1.652,-0.937 l 0.497,0.109 c 0.634,0.138 1.141,0.613 1.322,1.236 l -0.018,2.802 1.072,-0.64 c 0.208,-0.124 0.478,-0.054 0.599,0.156 v 0 c 0.103,0.178 0.067,0.405 -0.086,0.542 l -1.608,1.439 -0.939,3.413 z" id="path246"></path>
&#x9;<path style="fill:#396caa" d="m 277.801,284.437 c 0.779,3.551 -1.405,31.112 5.705,37.935 -2.734,0.022 -7.975,-2.408 -7.784,-5.981 0.587,-11.021 0.119,-20.869 -0.652,-30.223 -2.788,-3.612 -10.459,-5.913 -15.259,-10.546 0.35,0.108 17.22,5.3 17.99,8.815 z" id="path247"></path>
&#x9;<path style="fill:#ffffff" d="m 287.158,265.847 -1.215,-1.248 c 0,0 -1.998,2.042 -3.603,2.396 0,0 -1.932,0.547 -2.876,0.594 l -0.782,2.156 c 10e-4,10e-4 6.363,-0.455 8.476,-3.898 z" id="path248"></path>
&#x9;<path style="fill:#173d7a" d="m 278.199,259.451 c -0.3,0.15 -0.646,0.159 -0.943,0.003 -0.517,-0.272 -1.355,-2.328 -2.431,-2.178 -1.682,0.235 -4.117,3.767 -7.15,-1.159 -1.576,-2.56 -0.652,-3.942 -1.418,-5.396 0,0 0.27,0.789 6.871,-3.241 6.601,-4.029 11.999,0.882 13.673,3.689 1.674,2.808 2.76,8.296 -1.573,11.392 -0.718,0.513 -5.342,-0.403 -5.437,-0.79 -0.095,-0.387 1.143,-1.01 0.443,-1.917 -0.582,-0.753 -1.25,-0.795 -2.035,-0.403 z" id="path249"></path>
</g><path style="fill:#5793ce" d="m 216.328,370.625 c -0.15,0 -0.303,-0.039 -0.442,-0.121 l -46.489,-27.531 c -0.413,-0.245 -0.55,-0.778 -0.306,-1.19 0.243,-0.414 0.777,-0.55 1.19,-0.306 l 46.491,27.531 c 0.412,0.245 0.549,0.778 0.305,1.191 -0.163,0.274 -0.452,0.426 -0.749,0.426 z" id="path250"></path><g id="g335">
&#x9;<g id="g279">
&#x9;&#x9;<g id="g262">
&#x9;&#x9;&#x9;<path style="fill:#396caa" d="m 119.343,329.889 v 0 -125.713 l 49.977,-13.08 9.206,-5.315 c 2.113,-1.22 5.803,-1.067 8.242,0.342 l 8.589,4.959 26.656,-0.015 -7.893,121.358 c 0.06,0.826 -0.4,1.622 -1.415,2.208 l -49.874,37.632 c -2.113,1.22 -5.803,1.067 -8.242,-0.342 l -33.238,-19.19 c -1.408,-0.812 -2.087,-1.865 -2.008,-2.844 z" id="path251"></path>
&#x9;&#x9;&#x9;<path style="fill:#d4ecff" d="m 182.349,184.964 c 1.546,0.038 3.151,0.427 4.418,1.159 l 8.589,4.959 26.656,-0.015 v 126.051 c 0.06,0.826 -0.4,1.622 -1.415,2.208 l -57.767,32.939 c -1.015,0.586 -2.395,0.852 -3.825,0.817 l -0.596,-126.839 z" id="path252"></path>
&#x9;&#x9;&#x9;<path style="fill:#5793ce" d="m 162.299,352.524 c -1.822,0.781 -4.458,0.737 -6.589,-0.075 V 224.744 h 6.589 z" id="path253"></path>
&#x9;&#x9;&#x9;<path style="fill:#d4ecff" d="m 162.83,226.258 57.767,-32.939 c 2.113,-1.22 1.848,-3.35 -0.592,-4.759 l -33.238,-19.19 c -2.439,-1.408 -6.13,-1.561 -8.242,-0.342 l -57.767,32.939 c -2.113,1.22 -1.848,3.35 0.592,4.759 l 33.238,19.19 c 2.439,1.409 6.129,1.562 8.242,0.342 z" id="path254"></path>
&#x9;&#x9;&#x9;<path style="fill:#fafdff" d="m 121.35,204.389 33.238,19.19 c 2.439,1.408 6.13,1.561 8.242,0.342 l 57.767,-32.939 c 0.471,-0.272 0.817,-0.591 1.054,-0.935 0.726,1.168 0.397,2.435 -1.054,3.273 l -57.767,32.939 c -2.113,1.22 -5.803,1.067 -8.242,-0.342 l -33.238,-19.19 c -1.896,-1.094 -2.471,-2.623 -1.646,-3.824 0.331,0.533 0.882,1.045 1.646,1.486 z" id="path255"></path>
&#x9;&#x9;&#x9;<g id="g261">
&#x9;&#x9;&#x9;&#x9;<path style="fill:#173d7a" d="m 161.196,212.908 38.46,-22.294 c 0.989,-0.571 0.865,-1.568 -0.277,-2.227 l -15.554,-8.98 c -1.141,-0.659 -2.868,-0.731 -3.857,-0.16 l -38.46,22.294 c -0.989,0.571 -0.865,1.568 0.277,2.227 l 15.554,8.98 c 1.141,0.659 2.868,0.731 3.857,0.16 z" id="path256"></path>
&#x9;&#x9;&#x9;&#x9;<g id="g260">
&#x9;&#x9;&#x9;&#x9;&#x9;<path style="fill:#d4ecff" d="m 181.959,191.615 2.229,-1.287 c 0.137,-0.079 0.12,-0.217 -0.038,-0.308 l -2.152,-1.242 c -0.158,-0.091 -0.397,-0.101 -0.534,-0.022 l -2.229,1.287 c -0.137,0.079 -0.12,0.217 0.038,0.308 l 2.152,1.242 c 0.158,0.091 0.397,0.101 0.534,0.022 z" id="path257"></path>
&#x9;&#x9;&#x9;&#x9;&#x9;<path style="fill:#ff2c9c" d="m 174.514,195.896 2.229,-1.287 c 0.137,-0.079 0.12,-0.217 -0.038,-0.308 l -2.152,-1.242 c -0.158,-0.091 -0.397,-0.101 -0.534,-0.022 l -2.229,1.287 c -0.137,0.079 -0.12,0.217 0.038,0.308 l 2.152,1.242 c 0.158,0.092 0.397,0.101 0.534,0.022 z" id="path258"></path>
&#x9;&#x9;&#x9;&#x9;&#x9;<path style="fill:#d4ecff" d="m 167.068,200.178 2.229,-1.287 c 0.137,-0.079 0.12,-0.217 -0.038,-0.308 l -2.152,-1.242 c -0.158,-0.091 -0.397,-0.101 -0.534,-0.022 l -2.229,1.287 c -0.137,0.079 -0.12,0.217 0.038,0.308 l 2.152,1.242 c 0.159,0.091 0.398,0.101 0.534,0.022 z" id="path259"></path>
&#x9;&#x9;&#x9;&#x9;&#x9;<path style="fill:#d4ecff" d="m 159.623,204.459 2.229,-1.287 c 0.137,-0.079 0.12,-0.217 -0.038,-0.308 l -2.152,-1.242 c -0.158,-0.091 -0.397,-0.101 -0.534,-0.022 l -2.229,1.287 c -0.137,0.079 -0.12,0.217 0.038,0.308 l 2.152,1.242 c 0.158,0.091 0.397,0.101 0.534,0.022 z" id="path260"></path>
&#x9;&#x9;&#x9;&#x9;</g>
&#x9;&#x9;&#x9;&#x9;<path style="fill:#5793ce" d="m 199.656,190.614 -0.046,0.026 c -0.075,-0.054 -0.145,-0.109 -0.231,-0.159 l -15.554,-8.98 c -1.142,-0.659 -2.868,-0.731 -3.857,-0.16 l -38.414,22.268 c -0.911,-0.652 -0.959,-1.54 -0.046,-2.068 l 38.46,-22.294 c 0.989,-0.571 2.715,-0.499 3.857,0.16 l 15.554,8.98 c 1.141,0.659 1.265,1.656 0.277,2.227 z" id="path261"></path>
&#x9;&#x9;&#x9;</g>
&#x9;&#x9;</g>
&#x9;&#x9;<g id="g266">
&#x9;&#x9;&#x9;<path style="fill:#173d7a" d="m 148.098,251.165 -21.867,-12.52 c -1.23,-0.71 -2.228,-2.616 -2.228,-4.257 v -7.82 c 0,-1.641 0.998,-2.395 2.228,-1.684 l 21.867,12.52 c 1.231,0.71 2.228,2.617 2.228,4.257 v 7.82 c 0,1.64 -0.998,2.394 -2.228,1.684 z" id="path262"></path>
&#x9;&#x9;&#x9;<path style="fill:#ffffff" d="m 125.148,224.647 c -0.344,0.324 -0.559,0.877 -0.559,1.627 v 7.82 c 0,1.641 0.998,3.547 2.228,4.257 l 21.867,12.52 c 0.395,0.228 0.761,0.29 1.082,0.236 -0.408,0.385 -1.001,0.443 -1.669,0.057 l -21.867,-12.52 c -1.23,-0.71 -2.228,-2.617 -2.228,-4.257 v -7.82 c 0.001,-1.113 0.466,-1.804 1.146,-1.92 z" id="path263"></path>
&#x9;&#x9;&#x9;<g id="g265">
&#x9;&#x9;&#x9;&#x9;<path style="fill:#396caa" d="m 141.521,242.67 -2.006,-1.158 c -0.268,-0.155 -0.486,-0.57 -0.486,-0.928 v -2.143 c 0,-0.358 0.217,-0.522 0.486,-0.367 l 2.006,1.158 c 0.268,0.155 0.486,0.57 0.486,0.928 v 2.143 c 0,0.357 -0.218,0.522 -0.486,0.367 z" id="path264"></path>
&#x9;&#x9;&#x9;&#x9;<path style="fill:#ffffff" d="m 134.814,238.797 -2.006,-1.158 c -0.268,-0.155 -0.486,-0.57 -0.486,-0.928 v -2.143 c 0,-0.358 0.217,-0.522 0.486,-0.367 l 2.006,1.158 c 0.268,0.155 0.486,0.57 0.486,0.928 v 2.143 c -0.001,0.358 -0.218,0.522 -0.486,0.367 z" id="path265"></path>
&#x9;&#x9;&#x9;</g>
&#x9;&#x9;</g>
&#x9;&#x9;<g id="g270">
&#x9;&#x9;&#x9;<path style="fill:#173d7a" d="m 148.098,307.672 -21.867,-12.52 c -1.23,-0.71 -2.228,-2.616 -2.228,-4.257 v -7.82 c 0,-1.641 0.998,-2.395 2.228,-1.684 l 21.867,12.52 c 1.231,0.71 2.228,2.616 2.228,4.257 v 7.82 c 0,1.641 -0.998,2.395 -2.228,1.684 z" id="path266"></path>
&#x9;&#x9;&#x9;<path style="fill:#ffffff" d="m 125.148,281.155 c -0.344,0.324 -0.559,0.877 -0.559,1.627 v 7.82 c 0,1.641 0.998,3.547 2.228,4.257 l 21.867,12.52 c 0.395,0.228 0.761,0.29 1.082,0.236 -0.408,0.385 -1.001,0.443 -1.669,0.057 l -21.867,-12.52 c -1.23,-0.71 -2.228,-2.617 -2.228,-4.257 v -7.82 c 0.001,-1.114 0.466,-1.804 1.146,-1.92 z" id="path267"></path>
&#x9;&#x9;&#x9;<g id="g269">
&#x9;&#x9;&#x9;&#x9;<path style="fill:#ff2c9c" d="m 141.521,299.178 -2.006,-1.158 c -0.268,-0.155 -0.486,-0.57 -0.486,-0.928 v -2.143 c 0,-0.358 0.217,-0.522 0.486,-0.367 l 2.006,1.158 c 0.268,0.155 0.486,0.57 0.486,0.928 v 2.143 c 0,0.357 -0.218,0.521 -0.486,0.367 z" id="path268"></path>
&#x9;&#x9;&#x9;&#x9;<path style="fill:#ffffff" d="m 134.814,295.305 -2.006,-1.158 c -0.268,-0.155 -0.486,-0.57 -0.486,-0.928 v -2.143 c 0,-0.358 0.217,-0.522 0.486,-0.367 l 2.006,1.158 c 0.268,0.155 0.486,0.57 0.486,0.928 v 2.143 c -0.001,0.358 -0.218,0.522 -0.486,0.367 z" id="path269"></path>
&#x9;&#x9;&#x9;</g>
&#x9;&#x9;</g>
&#x9;&#x9;<g id="g274">
&#x9;&#x9;&#x9;<path style="fill:#173d7a" d="m 148.098,335.926 -21.867,-12.52 c -1.23,-0.71 -2.228,-2.616 -2.228,-4.257 v -7.82 c 0,-1.641 0.998,-2.395 2.228,-1.684 l 21.867,12.52 c 1.231,0.71 2.228,2.616 2.228,4.257 v 7.82 c 0,1.641 -0.998,2.395 -2.228,1.684 z" id="path270"></path>
&#x9;&#x9;&#x9;<path style="fill:#ffffff" d="m 125.148,309.409 c -0.344,0.324 -0.559,0.877 -0.559,1.627 v 7.82 c 0,1.641 0.998,3.547 2.228,4.257 l 21.867,12.52 c 0.395,0.228 0.761,0.29 1.082,0.236 -0.408,0.385 -1.001,0.443 -1.669,0.057 l -21.867,-12.52 c -1.23,-0.71 -2.228,-2.617 -2.228,-4.257 v -7.82 c 0.001,-1.114 0.466,-1.804 1.146,-1.92 z" id="path271"></path>
&#x9;&#x9;&#x9;<g id="g273">
&#x9;&#x9;&#x9;&#x9;<path style="fill:#396caa" d="m 141.521,327.432 -2.006,-1.158 c -0.268,-0.155 -0.486,-0.57 -0.486,-0.928 v -2.143 c 0,-0.358 0.217,-0.522 0.486,-0.367 l 2.006,1.158 c 0.268,0.155 0.486,0.57 0.486,0.928 v 2.143 c 0,0.357 -0.218,0.521 -0.486,0.367 z" id="path272"></path>
&#x9;&#x9;&#x9;&#x9;<path style="fill:#ffffff" d="m 134.814,323.559 -2.006,-1.158 c -0.268,-0.155 -0.486,-0.57 -0.486,-0.928 v -2.143 c 0,-0.358 0.217,-0.522 0.486,-0.367 l 2.006,1.158 c 0.268,0.155 0.486,0.57 0.486,0.928 v 2.143 c -0.001,0.358 -0.218,0.522 -0.486,0.367 z" id="path273"></path>
&#x9;&#x9;&#x9;</g>
&#x9;&#x9;</g>
&#x9;&#x9;<g id="g278">
&#x9;&#x9;&#x9;<path style="fill:#173d7a" d="m 148.098,279.418 -21.867,-12.52 c -1.23,-0.711 -2.228,-2.616 -2.228,-4.257 v -7.82 c 0,-1.641 0.998,-2.395 2.228,-1.684 l 21.867,12.52 c 1.231,0.71 2.228,2.616 2.228,4.257 v 7.82 c 0,1.641 -0.998,2.395 -2.228,1.684 z" id="path274"></path>
&#x9;&#x9;&#x9;<path style="fill:#ffffff" d="m 125.148,252.901 c -0.344,0.324 -0.559,0.877 -0.559,1.627 v 7.82 c 0,1.641 0.998,3.547 2.228,4.257 l 21.867,12.52 c 0.395,0.228 0.761,0.29 1.082,0.236 -0.408,0.385 -1.001,0.443 -1.669,0.057 l -21.867,-12.52 c -1.23,-0.71 -2.228,-2.616 -2.228,-4.257 v -7.82 c 0.001,-1.114 0.466,-1.804 1.146,-1.92 z" id="path275"></path>
&#x9;&#x9;&#x9;<g id="g277">
&#x9;&#x9;&#x9;&#x9;<path style="fill:#396caa" d="m 141.521,270.924 -2.006,-1.158 c -0.268,-0.155 -0.486,-0.57 -0.486,-0.928 v -2.143 c 0,-0.358 0.217,-0.522 0.486,-0.367 l 2.006,1.158 c 0.268,0.155 0.486,0.57 0.486,0.928 v 2.143 c 0,0.357 -0.218,0.521 -0.486,0.367 z" id="path276"></path>
&#x9;&#x9;&#x9;&#x9;<path style="fill:#ffffff" d="m 134.814,267.051 -2.006,-1.158 c -0.268,-0.155 -0.486,-0.57 -0.486,-0.928 v -2.143 c 0,-0.358 0.217,-0.522 0.486,-0.367 l 2.006,1.158 c 0.268,0.155 0.486,0.57 0.486,0.928 v 2.143 c -0.001,0.358 -0.218,0.522 -0.486,0.367 z" id="path277"></path>
&#x9;&#x9;&#x9;</g>
&#x9;&#x9;</g>
&#x9;</g>
&#x9;<g id="g286">
&#x9;&#x9;<path style="fill:#5793ce" d="m 167.038,243.16 50.449,-29.127 c 1.129,-0.652 2.044,-2.401 2.044,-3.906 v -9.62 c 0,-1.506 -0.915,-2.198 -2.044,-1.546 l -50.449,29.127 c -1.129,0.652 -2.045,2.401 -2.045,3.906 v 9.62 c 0,1.506 0.915,2.197 2.045,1.546 z" id="path279"></path>
&#x9;&#x9;<path style="opacity:0.4;fill:#d4ecff" d="m 168.486,239.787 47.553,-27.455 c 0.573,-0.331 1.037,-1.218 1.037,-1.982 v -7.232 c 0,-0.764 -0.464,-1.115 -1.037,-0.784 l -47.553,27.455 c -0.573,0.331 -1.037,1.218 -1.037,1.982 v 7.232 c 0,0.763 0.464,1.114 1.037,0.784 z" id="path280"></path>
&#x9;&#x9;<path style="fill:#d4ecff" d="m 206.129,214.397 7.097,-4.097 c 0.556,-0.321 1.007,-1.183 1.007,-1.925 v 0 c 0,-0.742 -0.451,-1.083 -1.007,-0.761 l -7.097,4.097 c -0.556,0.321 -1.007,1.183 -1.007,1.925 v 0 c 0,0.742 0.451,1.083 1.007,0.761 z" id="path281"></path>
&#x9;&#x9;<path style="fill:#173d7a" d="m 200.081,216.546 c 0,0.742 0.521,1.042 1.163,0.672 0.642,-0.371 1.163,-1.273 1.163,-2.015 0,-0.742 -0.521,-1.042 -1.163,-0.672 -0.642,0.371 -1.163,1.273 -1.163,2.015 z" id="path282"></path>
&#x9;&#x9;<path style="fill:#173d7a" d="m 195.978,218.915 c 0,0.742 0.521,1.042 1.163,0.671 0.642,-0.371 1.163,-1.273 1.163,-2.015 0,-0.742 -0.521,-1.042 -1.163,-0.671 -0.642,0.371 -1.163,1.273 -1.163,2.015 z" id="path283"></path>
&#x9;&#x9;<path style="fill:#d4ecff" d="m 191.875,221.284 c 0,0.742 0.521,1.042 1.163,0.672 0.642,-0.371 1.163,-1.273 1.163,-2.015 0,-0.742 -0.521,-1.042 -1.163,-0.672 -0.643,0.371 -1.163,1.273 -1.163,2.015 z" id="path284"></path>
&#x9;&#x9;<path style="fill:#173d7a" d="m 187.771,223.653 c 0,0.742 0.521,1.042 1.163,0.671 0.642,-0.371 1.163,-1.273 1.163,-2.015 0,-0.742 -0.521,-1.042 -1.163,-0.672 -0.642,0.372 -1.163,1.274 -1.163,2.016 z" id="path285"></path>
&#x9;&#x9;<path style="fill:#173d7a" d="m 170.486,235.759 2.39,-1.38 c 0.357,-0.206 0.646,-0.759 0.646,-1.235 v -2.529 c 0,-0.476 -0.29,-0.695 -0.646,-0.489 l -2.39,1.38 c -0.357,0.206 -0.646,0.759 -0.646,1.235 v 2.529 c 0,0.477 0.289,0.695 0.646,0.489 z" id="path286"></path>
&#x9;</g>
&#x9;<g id="g294">
&#x9;&#x9;<path style="fill:#5793ce" d="m 167.038,260.123 50.449,-29.127 c 1.129,-0.652 2.044,-2.401 2.044,-3.907 v -9.62 c 0,-1.506 -0.915,-2.198 -2.044,-1.546 l -50.449,29.127 c -1.129,0.652 -2.045,2.401 -2.045,3.906 v 9.62 c 0,1.507 0.915,2.199 2.045,1.547 z" id="path287"></path>
&#x9;&#x9;<path style="opacity:0.4;fill:#d4ecff" d="m 168.486,256.75 47.553,-27.455 c 0.573,-0.331 1.037,-1.218 1.037,-1.982 v -7.232 c 0,-0.764 -0.464,-1.115 -1.037,-0.784 l -47.553,27.455 c -0.573,0.331 -1.037,1.218 -1.037,1.982 v 7.232 c 0,0.764 0.464,1.115 1.037,0.784 z" id="path288"></path>
&#x9;&#x9;<path style="fill:#d4ecff" d="m 206.129,231.361 7.097,-4.097 c 0.556,-0.321 1.007,-1.183 1.007,-1.925 v 0 c 0,-0.742 -0.451,-1.083 -1.007,-0.761 l -7.097,4.097 c -0.556,0.321 -1.007,1.183 -1.007,1.925 v 0 c 0,0.741 0.451,1.082 1.007,0.761 z" id="path289"></path>
&#x9;&#x9;<path style="fill:#ffffff" d="m 200.081,233.51 c 0,0.742 0.521,1.042 1.163,0.672 0.642,-0.371 1.163,-1.273 1.163,-2.015 0,-0.742 -0.521,-1.042 -1.163,-0.672 -0.642,0.371 -1.163,1.273 -1.163,2.015 z" id="path290"></path>
&#x9;&#x9;<path style="fill:#173d7a" d="m 195.978,235.879 c 0,0.742 0.521,1.042 1.163,0.671 0.642,-0.371 1.163,-1.273 1.163,-2.015 0,-0.742 -0.521,-1.042 -1.163,-0.672 -0.642,0.372 -1.163,1.274 -1.163,2.016 z" id="path291"></path>
&#x9;&#x9;<path style="fill:#d4ecff" d="m 191.875,238.248 c 0,0.742 0.521,1.042 1.163,0.672 0.642,-0.371 1.163,-1.273 1.163,-2.015 0,-0.742 -0.521,-1.042 -1.163,-0.672 -0.643,0.371 -1.163,1.273 -1.163,2.015 z" id="path292"></path>
&#x9;&#x9;<path style="fill:#173d7a" d="m 187.771,240.617 c 0,0.742 0.521,1.042 1.163,0.671 0.642,-0.371 1.163,-1.273 1.163,-2.015 0,-0.742 -0.521,-1.042 -1.163,-0.672 -0.642,0.372 -1.163,1.274 -1.163,2.016 z" id="path293"></path>
&#x9;&#x9;<path style="fill:#173d7a" d="m 170.486,252.723 2.39,-1.38 c 0.357,-0.206 0.646,-0.759 0.646,-1.235 v -2.529 c 0,-0.476 -0.29,-0.695 -0.646,-0.489 l -2.39,1.38 c -0.357,0.206 -0.646,0.759 -0.646,1.235 v 2.529 c 0,0.476 0.289,0.695 0.646,0.489 z" id="path294"></path>
&#x9;</g>
&#x9;<g id="g302">
&#x9;&#x9;<path style="fill:#5793ce" d="m 167.038,277.087 50.449,-29.127 c 1.129,-0.652 2.044,-2.401 2.044,-3.907 v -9.62 c 0,-1.506 -0.915,-2.198 -2.044,-1.546 l -50.449,29.127 c -1.129,0.652 -2.045,2.401 -2.045,3.906 v 9.62 c 0,1.507 0.915,2.199 2.045,1.547 z" id="path295"></path>
&#x9;&#x9;<path style="opacity:0.4;fill:#d4ecff" d="m 168.486,273.714 47.553,-27.455 c 0.573,-0.331 1.037,-1.218 1.037,-1.982 v -7.232 c 0,-0.764 -0.464,-1.115 -1.037,-0.784 l -47.553,27.455 c -0.573,0.331 -1.037,1.218 -1.037,1.982 v 7.232 c 0,0.764 0.464,1.115 1.037,0.784 z" id="path296"></path>
&#x9;&#x9;<path style="fill:#d4ecff" d="m 206.129,248.325 7.097,-4.097 c 0.556,-0.321 1.007,-1.183 1.007,-1.925 v 0 c 0,-0.742 -0.451,-1.083 -1.007,-0.761 l -7.097,4.097 c -0.556,0.321 -1.007,1.183 -1.007,1.925 v 0 c 0,0.741 0.451,1.082 1.007,0.761 z" id="path297"></path>
&#x9;&#x9;<path style="fill:#ffffff" d="m 200.081,250.473 c 0,0.742 0.521,1.042 1.163,0.672 0.642,-0.371 1.163,-1.273 1.163,-2.015 0,-0.742 -0.521,-1.042 -1.163,-0.672 -0.642,0.372 -1.163,1.274 -1.163,2.015 z" id="path298"></path>
&#x9;&#x9;<path style="fill:#173d7a" d="m 195.978,252.842 c 0,0.742 0.521,1.042 1.163,0.671 0.642,-0.371 1.163,-1.273 1.163,-2.015 0,-0.742 -0.521,-1.042 -1.163,-0.672 -0.642,0.373 -1.163,1.275 -1.163,2.016 z" id="path299"></path>
&#x9;&#x9;<path style="fill:#d4ecff" d="m 191.875,255.211 c 0,0.742 0.521,1.042 1.163,0.672 0.642,-0.371 1.163,-1.273 1.163,-2.015 0,-0.742 -0.521,-1.042 -1.163,-0.672 -0.643,0.372 -1.163,1.274 -1.163,2.015 z" id="path300"></path>
&#x9;&#x9;<path style="fill:#173d7a" d="m 187.771,257.58 c 0,0.742 0.521,1.042 1.163,0.671 0.642,-0.371 1.163,-1.273 1.163,-2.015 0,-0.742 -0.521,-1.042 -1.163,-0.672 -0.642,0.373 -1.163,1.275 -1.163,2.016 z" id="path301"></path>
&#x9;&#x9;<path style="fill:#173d7a" d="m 170.486,269.687 2.39,-1.38 c 0.357,-0.206 0.646,-0.759 0.646,-1.235 v -2.529 c 0,-0.476 -0.29,-0.695 -0.646,-0.489 l -2.39,1.38 c -0.357,0.206 -0.646,0.759 -0.646,1.235 v 2.529 c 0,0.476 0.289,0.695 0.646,0.489 z" id="path302"></path>
&#x9;</g>
&#x9;<g id="g310">
&#x9;&#x9;<path style="fill:#5793ce" d="m 167.038,294.051 50.449,-29.127 c 1.129,-0.652 2.044,-2.401 2.044,-3.906 v -9.62 c 0,-1.506 -0.915,-2.198 -2.044,-1.546 l -50.449,29.127 c -1.129,0.652 -2.045,2.401 -2.045,3.907 v 9.62 c 0,1.505 0.915,2.197 2.045,1.545 z" id="path303"></path>
&#x9;&#x9;<path style="opacity:0.4;fill:#d4ecff" d="m 168.486,290.678 47.553,-27.455 c 0.573,-0.331 1.037,-1.218 1.037,-1.982 v -7.232 c 0,-0.764 -0.464,-1.115 -1.037,-0.784 l -47.553,27.455 c -0.573,0.331 -1.037,1.218 -1.037,1.982 v 7.232 c 0,0.763 0.464,1.115 1.037,0.784 z" id="path304"></path>
&#x9;&#x9;<path style="fill:#d4ecff" d="m 206.129,265.288 7.097,-4.097 c 0.556,-0.321 1.007,-1.183 1.007,-1.925 v 0 c 0,-0.742 -0.451,-1.083 -1.007,-0.762 l -7.097,4.097 c -0.556,0.321 -1.007,1.183 -1.007,1.925 v 0 c 0,0.743 0.451,1.084 1.007,0.762 z" id="path305"></path>
&#x9;&#x9;<path style="fill:#173d7a" d="m 200.081,267.437 c 0,0.742 0.521,1.042 1.163,0.671 0.642,-0.371 1.163,-1.273 1.163,-2.015 0,-0.742 -0.521,-1.042 -1.163,-0.672 -0.642,0.372 -1.163,1.274 -1.163,2.016 z" id="path306"></path>
&#x9;&#x9;<path style="fill:#173d7a" d="m 195.978,269.806 c 0,0.742 0.521,1.042 1.163,0.672 0.642,-0.371 1.163,-1.273 1.163,-2.015 0,-0.742 -0.521,-1.042 -1.163,-0.671 -0.642,0.37 -1.163,1.272 -1.163,2.014 z" id="path307"></path>
&#x9;&#x9;<path style="fill:#d4ecff" d="m 191.875,272.175 c 0,0.742 0.521,1.042 1.163,0.671 0.642,-0.371 1.163,-1.273 1.163,-2.015 0,-0.742 -0.521,-1.042 -1.163,-0.672 -0.643,0.372 -1.163,1.274 -1.163,2.016 z" id="path308"></path>
&#x9;&#x9;<path style="fill:#173d7a" d="m 187.771,274.544 c 0,0.742 0.521,1.042 1.163,0.672 0.642,-0.371 1.163,-1.273 1.163,-2.015 0,-0.742 -0.521,-1.042 -1.163,-0.671 -0.642,0.37 -1.163,1.272 -1.163,2.014 z" id="path309"></path>
&#x9;&#x9;<path style="fill:#d4ecff" d="m 170.486,286.65 2.39,-1.38 c 0.357,-0.206 0.646,-0.759 0.646,-1.235 v -2.529 c 0,-0.476 -0.29,-0.695 -0.646,-0.489 l -2.39,1.38 c -0.357,0.206 -0.646,0.759 -0.646,1.235 v 2.529 c 0,0.477 0.289,0.696 0.646,0.489 z" id="path310"></path>
&#x9;</g>
&#x9;<g id="g318">
&#x9;&#x9;<path style="fill:#5793ce" d="m 167.038,311.014 50.449,-29.127 c 1.129,-0.652 2.044,-2.401 2.044,-3.906 v -9.62 c 0,-1.506 -0.915,-2.198 -2.044,-1.546 l -50.449,29.127 c -1.129,0.652 -2.045,2.401 -2.045,3.906 v 9.62 c 0,1.506 0.915,2.198 2.045,1.546 z" id="path311"></path>
&#x9;&#x9;<path style="opacity:0.4;fill:#d4ecff" d="m 168.486,307.641 47.553,-27.455 c 0.573,-0.331 1.037,-1.218 1.037,-1.982 v -7.232 c 0,-0.764 -0.464,-1.115 -1.037,-0.784 l -47.553,27.455 c -0.573,0.331 -1.037,1.218 -1.037,1.982 v 7.232 c 0,0.764 0.464,1.115 1.037,0.784 z" id="path312"></path>
&#x9;&#x9;<path style="fill:#d4ecff" d="m 206.129,282.252 7.097,-4.097 c 0.556,-0.321 1.007,-1.183 1.007,-1.925 v 0 c 0,-0.742 -0.451,-1.083 -1.007,-0.762 l -7.097,4.097 c -0.556,0.321 -1.007,1.183 -1.007,1.925 v 0 c 0,0.742 0.451,1.083 1.007,0.762 z" id="path313"></path>
&#x9;&#x9;<path style="fill:#173d7a" d="m 200.081,284.401 c 0,0.742 0.521,1.042 1.163,0.672 0.642,-0.371 1.163,-1.273 1.163,-2.015 0,-0.742 -0.521,-1.042 -1.163,-0.671 -0.642,0.37 -1.163,1.272 -1.163,2.014 z" id="path314"></path>
&#x9;&#x9;<path style="fill:#ffffff" d="m 195.978,286.77 c 0,0.742 0.521,1.042 1.163,0.671 0.642,-0.371 1.163,-1.273 1.163,-2.015 0,-0.742 -0.521,-1.042 -1.163,-0.672 -0.642,0.372 -1.163,1.274 -1.163,2.016 z" id="path315"></path>
&#x9;&#x9;<path style="fill:#d4ecff" d="m 191.875,289.139 c 0,0.742 0.521,1.042 1.163,0.672 0.642,-0.371 1.163,-1.273 1.163,-2.015 0,-0.742 -0.521,-1.042 -1.163,-0.671 -0.643,0.37 -1.163,1.272 -1.163,2.014 z" id="path316"></path>
&#x9;&#x9;<path style="fill:#ffffff" d="m 187.771,291.508 c 0,0.742 0.521,1.042 1.163,0.671 0.642,-0.371 1.163,-1.273 1.163,-2.015 0,-0.742 -0.521,-1.042 -1.163,-0.672 -0.642,0.372 -1.163,1.274 -1.163,2.016 z" id="path317"></path>
&#x9;&#x9;<path style="fill:#d4ecff" d="m 170.486,303.614 2.39,-1.38 c 0.357,-0.206 0.646,-0.759 0.646,-1.235 v -2.529 c 0,-0.476 -0.29,-0.695 -0.646,-0.489 l -2.39,1.38 c -0.357,0.206 -0.646,0.759 -0.646,1.235 v 2.529 c 0,0.476 0.289,0.695 0.646,0.489 z" id="path318"></path>
&#x9;</g>
&#x9;<g id="g326">
&#x9;&#x9;<path style="fill:#5793ce" d="m 167.038,327.978 50.449,-29.127 c 1.129,-0.652 2.044,-2.401 2.044,-3.906 v -9.62 c 0,-1.506 -0.915,-2.198 -2.044,-1.546 l -50.449,29.127 c -1.129,0.652 -2.045,2.401 -2.045,3.907 v 9.62 c 0,1.505 0.915,2.197 2.045,1.545 z" id="path319"></path>
&#x9;&#x9;<path style="opacity:0.4;fill:#d4ecff" d="m 168.486,324.605 47.553,-27.455 c 0.573,-0.331 1.037,-1.218 1.037,-1.982 v -7.232 c 0,-0.764 -0.464,-1.115 -1.037,-0.784 l -47.553,27.455 c -0.573,0.331 -1.037,1.218 -1.037,1.982 v 7.232 c 0,0.764 0.464,1.115 1.037,0.784 z" id="path320"></path>
&#x9;&#x9;<path style="fill:#d4ecff" d="m 206.129,299.216 7.097,-4.097 c 0.556,-0.321 1.007,-1.183 1.007,-1.925 v 0 c 0,-0.742 -0.451,-1.083 -1.007,-0.762 l -7.097,4.097 c -0.556,0.321 -1.007,1.183 -1.007,1.925 v 0 c 0,0.742 0.451,1.083 1.007,0.762 z" id="path321"></path>
&#x9;&#x9;<path style="fill:#173d7a" d="m 200.081,301.364 c 0,0.742 0.521,1.042 1.163,0.671 0.642,-0.371 1.163,-1.273 1.163,-2.015 0,-0.742 -0.521,-1.042 -1.163,-0.672 -0.642,0.373 -1.163,1.275 -1.163,2.016 z" id="path322"></path>
&#x9;&#x9;<path style="fill:#173d7a" d="m 195.978,303.733 c 0,0.742 0.521,1.042 1.163,0.672 0.642,-0.371 1.163,-1.273 1.163,-2.015 0,-0.742 -0.521,-1.042 -1.163,-0.671 -0.642,0.371 -1.163,1.273 -1.163,2.014 z" id="path323"></path>
&#x9;&#x9;<path style="fill:#d4ecff" d="m 191.875,306.103 c 0,0.742 0.521,1.042 1.163,0.671 0.642,-0.371 1.163,-1.273 1.163,-2.015 0,-0.742 -0.521,-1.042 -1.163,-0.672 -0.643,0.372 -1.163,1.274 -1.163,2.016 z" id="path324"></path>
&#x9;&#x9;<path style="fill:#173d7a" d="m 187.771,308.471 c 0,0.742 0.521,1.042 1.163,0.672 0.642,-0.371 1.163,-1.273 1.163,-2.015 0,-0.742 -0.521,-1.042 -1.163,-0.671 -0.642,0.371 -1.163,1.273 -1.163,2.014 z" id="path325"></path>
&#x9;&#x9;<path style="fill:#173d7a" d="m 170.486,320.578 2.39,-1.38 c 0.357,-0.206 0.646,-0.759 0.646,-1.235 v -2.529 c 0,-0.476 -0.29,-0.695 -0.646,-0.489 l -2.39,1.38 c -0.357,0.206 -0.646,0.759 -0.646,1.235 v 2.529 c 0,0.476 0.289,0.695 0.646,0.489 z" id="path326"></path>
&#x9;</g>
&#x9;<g id="g334">
&#x9;&#x9;<path style="fill:#5793ce" d="m 167.038,344.942 50.449,-29.127 c 1.129,-0.652 2.044,-2.401 2.044,-3.906 v -9.62 c 0,-1.506 -0.915,-2.198 -2.044,-1.546 l -50.449,29.127 c -1.129,0.652 -2.045,2.401 -2.045,3.906 v 9.62 c 0,1.506 0.915,2.198 2.045,1.546 z" id="path327"></path>
&#x9;&#x9;<path style="opacity:0.4;fill:#d4ecff" d="m 168.486,341.569 47.553,-27.455 c 0.573,-0.331 1.037,-1.218 1.037,-1.982 V 304.9 c 0,-0.764 -0.464,-1.115 -1.037,-0.784 l -47.553,27.455 c -0.573,0.331 -1.037,1.218 -1.037,1.982 v 7.232 c 0,0.763 0.464,1.115 1.037,0.784 z" id="path328"></path>
&#x9;&#x9;<path style="fill:#d4ecff" d="m 206.129,316.18 7.097,-4.097 c 0.556,-0.321 1.007,-1.183 1.007,-1.925 v 0 c 0,-0.742 -0.451,-1.083 -1.007,-0.762 l -7.097,4.097 c -0.556,0.321 -1.007,1.183 -1.007,1.925 v 0 c 0,0.742 0.451,1.083 1.007,0.762 z" id="path329"></path>
&#x9;&#x9;<path style="fill:#ffffff" d="m 198.785,319.246 c 0,1.401 0.984,1.969 2.197,1.268 1.213,-0.701 2.197,-2.404 2.197,-3.805 0,-1.401 -0.984,-1.969 -2.197,-1.268 -1.214,0.701 -2.197,2.404 -2.197,3.805 z" id="path330"></path>
&#x9;&#x9;<path style="fill:#173d7a" d="m 190.286,324.219 c 0,0.742 0.521,1.042 1.163,0.672 0.642,-0.371 1.163,-1.273 1.163,-2.014 0,-0.742 -0.521,-1.042 -1.163,-0.672 -0.643,0.371 -1.163,1.273 -1.163,2.014 z" id="path331"></path>
&#x9;&#x9;<path style="fill:#d4ecff" d="m 186.182,326.589 c 0,0.742 0.521,1.042 1.163,0.672 0.642,-0.371 1.163,-1.273 1.163,-2.015 0,-0.742 -0.521,-1.042 -1.163,-0.671 -0.642,0.37 -1.163,1.272 -1.163,2.014 z" id="path332"></path>
&#x9;&#x9;<path style="fill:#173d7a" d="m 182.079,328.957 c 0,0.742 0.521,1.042 1.163,0.672 0.642,-0.371 1.163,-1.273 1.163,-2.014 0,-0.742 -0.521,-1.042 -1.163,-0.672 -0.642,0.371 -1.163,1.273 -1.163,2.014 z" id="path333"></path>
&#x9;&#x9;<path style="fill:#d4ecff" d="m 170.486,337.541 2.39,-1.38 c 0.357,-0.206 0.646,-0.759 0.646,-1.235 v -2.529 c 0,-0.476 -0.29,-0.695 -0.646,-0.489 l -2.39,1.38 c -0.357,0.206 -0.646,0.759 -0.646,1.235 v 2.529 c 0,0.477 0.289,0.696 0.646,0.489 z" id="path334"></path>
&#x9;</g>
</g><g id="g339">
&#x9;<g id="g338">
&#x9;&#x9;<polygon style="opacity:0.5;fill:#173d7a" points="366.239,172.658 348.3,162.301 366.238,151.944 384.177,162.301 " id="polygon335"></polygon>
&#x9;&#x9;<polygon style="fill:#173d7a" points="384.177,149.152 366.239,159.509 366.239,138.796 384.177,128.439 " id="polygon336"></polygon>
&#x9;&#x9;<polygon style="fill:#d4ecff" points="366.239,138.796 348.3,128.439 366.238,118.082 384.177,128.439 " id="polygon337"></polygon>
&#x9;&#x9;<polygon style="fill:#5793ce" points="366.239,159.509 348.3,149.152 348.3,128.439 366.239,138.796 " id="polygon338"></polygon>
&#x9;</g>
&#x9;<polygon style="fill:#ffffff" points="359.778,148.319 354.761,145.422 354.761,139.629 359.778,142.526 " id="polygon339"></polygon>
</g></g></g></svg>